/* XPM */
static char * Check_xpm[] = {
"15 15 4 1",
" 	c None",
".	c #12F800",
"+	c #000000",
"@	c #FFFFFF",
"               ",
"               ",
"             .+",
"  ++++++++++..+",
"  +@@@@@@@@..+ ",
"  +@@@@@@@..+  ",
"  +@@@@@@...   ",
" ..+@@@@...+   ",
"  ..+@@...++   ",
"  ...+....++   ",
"  +......+@+   ",
"  +@....+@@+   ",
"  +++..+++++   ",
"     ++        ",
"               "};
