/* XPM */
static char * Check_xpm[] = {
"16 16 4 1",
" 	c None",
".	c #12F800",
"+	c #000000",
"@	c #FFFFFF",
"                ",
"                ",
"             .+ ",
"  ++++++++++..+ ",
"  +@@@@@@@@..+  ",
"  +@@@@@@@..+   ",
"  +@@@@@@...    ",
" ..+@@@@...+    ",
"  ..+@@...++    ",
"  ...+....++    ",
"  +......+@+    ",
"  +@....+@@+    ",
"  +++..+++++    ",
"     ++         ",
"                ",
"                "};
