/* XPM */
static char *db[] = {
/* columns rows colors chars-per-pixel */
"16 16 5 1",
"  c black",
". c blue",
"X c #808080",
"o c #c0c0c0",
"O c white",
/* pixels */
"................",
"                ",
" OOOOOOOOOOOOOX ",
" OooooooooooooX ",
" O    o      oX ",
" OoooX XooooooX ",
" Ooooo oooooooX ",
" Oooo   ooooooX ",
" XXXXXXXXXXXXXX ",
"                ",
"................",
"OOOOOOOOOOOOOOOO",
"OOOOOOOOOOOOOOOO",
"OOOOOOOOOOOOOOOO",
"OOOOOOOOOOOOOOOO",
"OOOOOOOOOOOOOOOO"
};
