/* XPM */
static char *Episode.xpm[] = {
/* columns rows colors chars-per-pixel */
"16 16 55 1",
"  c black",
". c #030708",
"X c #000d1d",
"o c gray12",
"O c #000e2b",
"+ c #001a3b",
"@ c #2e3030",
"# c #323335",
"$ c #1a3447",
"% c #153a62",
"& c #064365",
"* c #0d4a73",
"= c #3b4246",
"- c #224d6c",
"; c #2b4e63",
": c #2f5166",
"> c #305369",
", c #326078",
"< c #4c4d4d",
"1 c #575859",
"2 c #5b5e5f",
"3 c #435060",
"4 c #646566",
"5 c #456980",
"6 c #4e7790",
"7 c #5b96b6",
"8 c #6c8da5",
"9 c #7994ae",
"0 c #81888c",
"q c #8a8f92",
"w c #8199b1",
"e c #919ba0",
"r c #9aa1a5",
"t c #9da4a8",
"y c #90a5ba",
"u c #a6adb1",
"i c #acb1b2",
"p c #b4b2b1",
"a c #94b5d4",
"s c #9dbdda",
"d c #bdc0c2",
"f c #a0cce1",
"g c #abd5ec",
"h c #c2bebb",
"j c #c3c2c1",
"k c #c9c6c5",
"l c #cad2d4",
"z c #d3d3d2",
"x c #dce1e3",
"c c #d9edf9",
"v c #edeceb",
"b c #e5f9ff",
"n c #e8ffff",
"m c #feffff",
"M c White",
/* pixels */
"MMMMMMMMMMMMMMMM",
"MMMMMMMMMMMMMMMM",
"MMMMMMMMMMMMMMMM",
"myssssssssssssab",
"j              ,",
"u              ;",
"r  .2      o@  :",
"r Omm0    %mm= :",
"t 6h&m    g47d :",
"t 5xXm    fq3l :",
"t Xnm1    -mm# :",
"p  ++      *O  >",
"i              $",
"m<             c",
"e9wwwwwwwwwwwww8",
"vjkkkkkkkkkkkkkz"
};
