/* XPM */
static char * Italic_xpm[] = {
"15 14 2 1",
" 	c None",
".	c #000000",
"               ",
"               ",
"               ",
"       ......  ",
"        ...    ",
"        ..     ",
"       ...     ",
"       ..      ",
"      ...      ",
"      ..       ",
"     ...       ",
"   ......      ",
"               ",
"               "};
