/* XPM */
static char *NoteNode.xpm[] = {
/* columns rows colors chars-per-pixel */
"16 16 30 1",
"  c black",
". c #26262b",
"X c #474542",
"o c #68684f",
"O c #747459",
"+ c #6b6b6e",
"@ c #d5d4cd",
"# c #dcdad3",
"$ c #c5d1ee",
"% c #c7d3f0",
"& c #cad6f4",
"* c #cdd9f6",
"= c #cedaf9",
"- c #d1ddfb",
"; c #d4e0fd",
": c #d9e5ff",
"> c #dbe8ff",
", c #dff1ff",
"< c #ffceda",
"1 c #e4e1db",
"2 c #eae7e1",
"3 c #ece9e2",
"4 c #e1f3ff",
"5 c #f0eee7",
"6 c #f4f1eb",
"7 c #f9f6ef",
"8 c #f9f7f0",
"9 c #fbf9f3",
"0 c #fffffd",
"q c White",
/* pixels */
"q o. o. o. o qqq",
"q   ++ ++ + 0 qq",
"q 0 0 0 0 0 0 Oq",
"q 4<<------=> Oq",
"q 0<<00000990 Oq",
"q 4<<;;;---*: Oq",
"q 4<<;;;----: Oq",
"q 0<<00009768 Oq",
"q 4<<-;;;**&; Oq",
"q 4<<-;;;***; Oq",
"q 0<<87875113 Oq",
"q ,<<-**&%&%- Oq",
"q ,<<==*&%%$- Oq",
"q 0<<3321##@# Oq",
"qX,<<;;-===&; Oq",
"qq            qq"
};
