/* XPM */
static char* PrintSetup[] = {
"16 16 8 1",
"  c #000000",
"! c #808080",
"# c #C0C0C0",
"$ c #FF0000",
"% c #FFFF00",
"& c #FFFFFF",
"' c #C0C0C0",
"( c #FFFFFF",
"&&           &&&",
"&& (&('!'('' &&&",
"&& (&    !(( &&&",
"&& (&! (  (' &&&",
"&& (&(((  (' &&&",
"&& (&(!  !(' &&&",
"&& (&(  (((' &&&",
"&& (&(  (('' &&&",
"&& (&(((('(' &&&",
"&& (&&  ''(' &&&",
"   !!(  '!!!    ",
" ##''((('''''#&!",
"              ! ",
"(!!%!$&&&#&#& #&",
"(             #&",
"(!!!!!!!!!!!!!#&"};
