/* XPM */
static char * QuickClip16_xpm[] = {
"16 16 18 1",
" 	c None",
".	c #FFFFFF",
"+	c #0000FD",
"@	c #00007E",
"#	c #0000F0",
"$	c #FFFFFE",
"%	c #FF0000",
"&	c #B3B3F9",
"*	c #B8B8F9",
"=	c #ABABF9",
"-	c #A4A4F9",
";	c #6767F7",
">	c #FF3F3F",
",	c #FF2626",
"'	c #8B8BF8",
")	c #7777F8",
"!	c #F5F5FD",
"~	c #9B9BF9",
"................",
"+++++++++++++@..",
"#$%%%&&*=$@$$@..",
"#%%%%%---$@$$@..",
"%%%%%%%--$@##@..",
"%%#;%%%%%%%%%%%.",
"%%+$%%%%%%%%%%%.",
"%%>>%%%%%%@+%%..",
"#%%%%%,'%%@$%%..",
"#+,%%,-=-$@##@..",
"#$#)==---$@!$@..",
"###)=---~$@##@..",
"#$#$$$$$$$@$$@..",
"+++++++++++++@..",
"................",
"................"};
