/* XPM */
static char * ReadOnly16_xpm[] = {
"16 16 8 1",
" 	c None",
".	c #FFFFFF",
"+	c #000000",
"@	c #FF0000",
"#	c #808000",
"$	c #00FFFF",
"%	c #FFFF00",
"&	c #7F7F7F",
"                ",
"   +++      @@@ ",
"  +++++     +#+ ",
" +++++$+    %%+ ",
" ++++$$$+++++#+ ",
" +++$$$+%.%.+#+ ",
"  +$$$+%.%+%+#+ ",
"   +$+%.%.%++#+ ",
"    ++.%.%.%+#+ ",
"     +%.%.+.%++ ",
"     +.%.%.+.%+ ",
"      +.%+%.+.+ ",
"       +.%+++++ ",
"        ++  +#+ ",
"             +  ",
"  &&&&&&&&&& +  "};
