/* XPM */ 
static char * save16_xpm[] = {
"15 15 61 1",
" 	c None",
"!	c #0000FF",
"#	c #F00000",
"$	c #DECFCE",
"%	c #F7E3E7",
"&	c #F7E3DE",
"'	c #F7DFDE",
"(	c #DEDFDE",
")	c #FFFBFF",
"*	c #C6C7C6",
"+	c #D6D7D6",
",	c #E7E3E7",
"-	c white",
".	c #CECBCE",
"0	c #DEDBDE",
"1	c #DED7D6",
"2	c #F7F7F7",
"3	c #F7F3F7",
"4	c #63798C",
"5	c #6B7173",
"6	c #949294",
"7	c #9CA2A5",
"8	c #A5AAAD",
"9	c #A5A6AD",
":	c #9C9EA5",
";	c #8C9694",
"<	c #848684",
"=	c #5A656B",
">	c #425563",
"?	c #4A5963",
"@	c #BDBEBD",
"A	c #CECBC6",
"B	c #8C8E84",
"C	c #8C8684",
"D	c #CECFCE",
"E	c #C6BEBD",
"F	c #BDBAB5",
"G	c #73797B",
"H	c #4A6173",
"I	c #4A555A",
"J	c #DEDBD6",
"K	c #C6C3BD",
"L	c #5A5952",
"M	c #524D42",
"N	c #B5B2AD",
"O	c #C6BEB5",
"P	c #CECFC6",
"Q	c #7B8284",
"R	c #4A6573",
"S	c #424D52",
"T	c #BDB6B5",
"U	c #4A4942",
"V	c #ADAAA5",
"W	c #D6D3CE",
"X	c #84868C",
"Y	c #B5AEA5",
"Z	c #736D63",
"[	c #73716B",
"]	c #E7E7E7",
"^	c #7B7D84",
"_	c #425D6B",
"!!###########!!",
"!!###########!!",
"!!$%%%%&%&&'&!!",
"!!())))))))))!!",
"!!*(((((((((+!!",
"!!,----------!!",
"!!.(((((((((0!!",
"!!12222222223!!",
"!!!!!!!!!!!!!!!",
"!!!!!!!!!!!!!!!",
"!!456789:;<=>!!",
"!!?@ABC.DEFGH!!",
"!!IJKLMNKOPQR!!",
"!!S+TMUVEW,XH!!",
"!!SEYZ[N1](^_!!"};