/* XPM */
static char * StopLightAll_xpm[] = {
"16 16 5 1",
" 	c None",
".	c #000000",
"+	c #FF0000",
"@	c #FFFF00",
"#	c #16F516",
"   .........    ",
"   ...+++...    ",
"   ..+++++..    ",
"   .+++++++.    ",
"   ..+++++..    ",
"   ...+++...    ",
"   ...@@@...    ",
"   ..@@@@@..    ",
"   .@@@@@@@.    ",
"   ..@@@@@..    ",
"   ...@@@...    ",
"   ...###...    ",
"   ..#####..    ",
"   .#######.    ",
"   ..#####..    ",
"   ...###...    "};
