/* XPM */
static char * TimeCode16_xpm[] = {
"16 16 10 1",
" 	c None",
".	c #FC8D83",
"+	c #FD7169",
"@	c #FF0000",
"#	c #FB988D",
"$	c #FD5F58",
"%	c #FAA397",
"&	c #F6CDBE",
"*	c #F7C6B7",
"=	c #F8BEB0",
"                ",
"                ",
"  .+       +.   ",
"  +@# $@$ %@$   ",
"   .@@@@@@@.    ",
"    @+& &+@     ",
"   $@&   &@$    ",
"   @@     @@    ",
"   $@&   &@$    ",
"    @+& &+@     ",
"   .@@@@@@@.    ",
"  +@.*$@$=.@+   ",
"  .+       +.   ",
"                ",
"                ",
"                "};
