/* XPM */
static char * Time16_xpm[] = {
"16 16 30 1",
" 	c None",
".	c #FFFFFF",
"+	c #000000",
"@	c #68684F",
"#	c #26262B",
"$	c #6B6B6E",
"%	c #FFFFFD",
"&	c #747459",
"*	c #E1F3FF",
"=	c #FFCEDA",
"-	c #D1DDFB",
";	c #CEDAF9",
">	c #DBE8FF",
",	c #FBF9F3",
"'	c #D4E0FD",
")	c #CDD9F6",
"!	c #D9E5FF",
"~	c #F9F6EF",
"{	c #F9F7F0",
"]	c #F0EEE7",
"^	c #E4E1DB",
"/	c #ECE9E2",
"(	c #DFF1FF",
"_	c #CAD6F4",
":	c #C7D3F0",
"<	c #C5D1EE",
"[	c #EAE7E1",
"}	c #DCDAD3",
"|	c #D5D4CD",
"1	c #474542",
".+@#+@#+@#+@+...",
".+++$$+$$+$+%+..",
".+%+%+%+%+%+%+&.",
".+*==------;>+&.",
".+%==%+++%,,%+&.",
".+*==+'+-+-)!+&.",
".+*=+''+--+-!+&.",
".+%+=%%+%,~+{+&.",
".+*+=-'+++)+'+&.",
".+*+=-'''))+'+&.",
".+%=+{~{~]+^/+&.",
".+(==+))_+_:-+&.",
".+(==;+++::<-+&.",
".+%==//[^}}|}+&.",
".1(==''-;;;_'+&.",
"..++++++++++++.."};
