/* XPM */
static char * WhisperedSpeech_xpm[] = {
"16 16 11 1",
" 	c None",
".	c #BA7F37",
"+	c #000000",
"@	c #005F96",
"#	c #003A7A",
"$	c #BAD0C8",
"%	c #9E5F00",
"&	c #3B7FAF",
"*	c #619CC8",
"=	c #D4B77A",
"-	c #3B3A7A",
"                ",
"                ",
"      .++@      ",
"     .#$ %&     ",
"     %*  =-$    ",
"     .#$ %@     ",
"      %++#$     ",
"                ",
"                ",
"                ",
"                ",
"                ",
"                ",
"                ",
"                ",
"                "};
