/* XPM */
static char * ArtProv_QUESTION_xpm[] = {
"32 32 619 2",
"  	c None",
". 	c #676767",
"+ 	c #6A6767",
"@ 	c #696969",
"# 	c #6A6969",
"$ 	c #686767",
"% 	c #747474",
"& 	c #787777",
"* 	c #9D9D9D",
"= 	c #BEBEBE",
"- 	c #DADADA",
"; 	c #EDEDED",
"> 	c #FBFBFB",
", 	c #7A7A7A",
"' 	c #878686",
") 	c #BDBDBD",
"! 	c #EBEBEB",
"~ 	c #BFC0C3",
"{ 	c #AFB4C4",
"] 	c #9AA7CA",
"^ 	c #7C8EC0",
"/ 	c #7789BE",
"( 	c #8898C5",
"_ 	c #A1AAC5",
": 	c #B4B6C0",
"< 	c #DAD9DA",
"[ 	c #6A6666",
"} 	c #838383",
"| 	c #B8B7B7",
"1 	c #CACACA",
"2 	c #BEC2CF",
"3 	c #9BADDF",
"4 	c #688CE8",
"5 	c #4B74E3",
"6 	c #3F6AE0",
"7 	c #406CE0",
"8 	c #3E6ADD",
"9 	c #3A66D8",
"0 	c #3763D4",
"a 	c #3D67D1",
"b 	c #5274CC",
"c 	c #8A98BF",
"d 	c #C4C5CA",
"e 	c #686868",
"f 	c #888787",
"g 	c #D3D3D3",
"h 	c #DEDEDE",
"i 	c #C3C6CE",
"j 	c #A1B5E9",
"k 	c #6A8FED",
"l 	c #4B76E7",
"m 	c #436EE0",
"n 	c #436DDD",
"o 	c #446DDB",
"p 	c #416CD9",
"q 	c #406AD6",
"r 	c #3F68D4",
"s 	c #3C66D1",
"t 	c #3B64CE",
"u 	c #3660CB",
"v 	c #2F59C6",
"w 	c #3A5FC3",
"x 	c #8694B8",
"y 	c #DDDDDD",
"z 	c #E1E1E1",
"A 	c #CECECE",
"B 	c #BFC8DF",
"C 	c #819EEF",
"D 	c #527BE8",
"E 	c #436DDE",
"F 	c #4069D9",
"G 	c #3C66D6",
"H 	c #3763D3",
"I 	c #3660CF",
"J 	c #3662CD",
"K 	c #3962CB",
"L 	c #3B63CA",
"M 	c #3A62C7",
"N 	c #375FC4",
"O 	c #325CC1",
"P 	c #2751BB",
"Q 	c #546FB3",
"R 	c #C7C8CB",
"S 	c #BAC7E9",
"T 	c #6F92ED",
"U 	c #4570E2",
"V 	c #416CDE",
"W 	c #456EDD",
"X 	c #3E68D8",
"Y 	c #3764D6",
"Z 	c #476FD8",
"` 	c #5E82DB",
" .	c #7190DF",
"..	c #7190DD",
"+.	c #5D7ED6",
"@.	c #4369CB",
"#.	c #2F58C2",
"$.	c #325BC1",
"%.	c #355DC1",
"&.	c #335BBC",
"*.	c #335ABA",
"=.	c #2850B5",
"-.	c #3D5DAE",
";.	c #C5C6CB",
">.	c #B7C0DA",
",.	c #6D91EC",
"'.	c #416CDF",
").	c #446DDD",
"!.	c #3E69D8",
"~.	c #557BDD",
"{.	c #AEC1F2",
"].	c #EBF1FF",
"^.	c #FFFFFF",
"/.	c #FAFCFF",
"(.	c #E7EAF8",
"_.	c #A3B5E3",
":.	c #4367C2",
"<.	c #2B54B9",
"[.	c #3259B8",
"}.	c #3056B5",
"|.	c #2F55B4",
"1.	c #234BAE",
"2.	c #3F5CA4",
"3.	c #DBDBDC",
"4.	c #AEB1BA",
"5.	c #799AED",
"6.	c #446EDF",
"7.	c #436CDB",
"8.	c #446DD9",
"9.	c #416AD7",
"0.	c #3662D1",
"a.	c #B1C3F1",
"b.	c #FFFEFD",
"c.	c #FFFFFC",
"d.	c #D4DAED",
"e.	c #4365BA",
"f.	c #2A51B2",
"g.	c #2D54B0",
"h.	c #2B52AF",
"i.	c #2A50AD",
"j.	c #1E46A5",
"k.	c #6475A1",
"l.	c #C3C3C3",
"m.	c #92A7E1",
"n.	c #5279E2",
"o.	c #3F69D9",
"p.	c #436CD8",
"q.	c #416AD6",
"r.	c #3E67D3",
"s.	c #3560CE",
"t.	c #B6C5EE",
"u.	c #FCFCFE",
"v.	c #F8F8FA",
"w.	c #FFFFFD",
"x.	c #AAB8D9",
"y.	c #254BAC",
"z.	c #2B51AE",
"A.	c #2B50AC",
"B.	c #2A4FA8",
"C.	c #294EA6",
"D.	c #1D419C",
"E.	c #B1B5BF",
"F.	c #9DA3B4",
"G.	c #6A8DE8",
"H.	c #3D68D7",
"I.	c #4069D7",
"J.	c #3E67D0",
"K.	c #3C66CE",
"L.	c #335DCA",
"M.	c #B7C4EA",
"N.	c #FFFFFA",
"O.	c #C2C9DA",
"P.	c #8B9BC5",
"Q.	c #768DC2",
"R.	c #99AAD1",
"S.	c #F2F3F8",
"T.	c #FEFDFF",
"U.	c #FAFAFD",
"V.	c #FAFAFC",
"W.	c #E8EAF2",
"X.	c #3758AA",
"Y.	c #294FAB",
"Z.	c #2B50A8",
"`.	c #2B4FA6",
" +	c #294EA4",
".+	c #2349A0",
"++	c #4F6598",
"@+	c #D6D6D6",
"#+	c #8498CE",
"$+	c #4D74DD",
"%+	c #3C66D4",
"&+	c #3D65CF",
"*+	c #3C65CC",
"=+	c #355EC6",
"-+	c #7890CF",
";+	c #6F85B8",
">+	c #2C51AE",
",+	c #264FB4",
"'+	c #254FB4",
")+	c #1E47AD",
"!+	c #8499CE",
"~+	c #FDFCFA",
"{+	c #F9F8FC",
"]+	c #F5F6F7",
"^+	c #4764A8",
"/+	c #274EA6",
"(+	c #2B50A5",
"_+	c #2B4FA3",
":+	c #2A4EA2",
"<+	c #2A4DA1",
"[+	c #234697",
"}+	c #CBCDD2",
"|+	c #9E9E9E",
"1+	c #A8AAB0",
"2+	c #5D82DA",
"3+	c #3D67D4",
"4+	c #3C66CF",
"5+	c #3D65CD",
"6+	c #3C64CB",
"7+	c #3A62C9",
"8+	c #3960C5",
"9+	c #375EC3",
"0+	c #2F56BE",
"a+	c #2A53B9",
"b+	c #325BBC",
"c+	c #335AB9",
"d+	c #3359B7",
"e+	c #264EB0",
"f+	c #5A77BF",
"g+	c #E9E9EB",
"h+	c #EDECEF",
"i+	c #F2F1F4",
"j+	c #EBEBF1",
"k+	c #304F9B",
"l+	c #18409D",
"m+	c #1C419C",
"n+	c #1D419B",
"o+	c #1D4199",
"p+	c #1F4399",
"q+	c #163C96",
"r+	c #7E8AA3",
"s+	c #BFBFBF",
"t+	c #8E94A5",
"u+	c #466DD5",
"v+	c #3A63CD",
"w+	c #3B63C9",
"x+	c #3A60C6",
"y+	c #355DC2",
"z+	c #355CBF",
"A+	c #345BBB",
"B+	c #3259B7",
"C+	c #2D53B4",
"D+	c #234BAD",
"E+	c #123DA5",
"F+	c #7487B8",
"G+	c #D3D0D1",
"H+	c #D8D8DE",
"I+	c #EFEEEF",
"J+	c #BBC2D5",
"K+	c #163A91",
"L+	c #183E9A",
"M+	c #1B4099",
"N+	c #1C4099",
"O+	c #1C4098",
"P+	c #1C4097",
"Q+	c #1B3F96",
"R+	c #43588B",
"S+	c #7583A3",
"T+	c #3D66D0",
"U+	c #3A62CA",
"V+	c #365EC2",
"W+	c #355CC0",
"X+	c #345BBE",
"Y+	c #345BBA",
"Z+	c #3258B7",
"`+	c #2048AC",
" @	c #153FA5",
".@	c #0B36A1",
"+@	c #4D67AB",
"@@	c #B5B4BA",
"#@	c #C0BFC3",
"$@	c #D1D0D6",
"%@	c #EDECEC",
"&@	c #5B71A4",
"*@	c #113793",
"=@	c #1D4198",
"-@	c #1E4198",
";@	c #1F4197",
">@	c #204398",
",@	c #2B468A",
"'@	c #62739F",
")@	c #3A63CC",
"!@	c #365EC4",
"~@	c #355DC3",
"{@	c #345CC0",
"]@	c #335BBE",
"^@	c #335ABB",
"/@	c #2951B2",
"(@	c #1F47AB",
"_@	c #163FA6",
":@	c #133CA2",
"<@	c #133CA1",
"[@	c #5D73AC",
"}@	c #B1B1B7",
"|@	c #B2B1B6",
"1@	c #BABABF",
"2@	c #D6D4D6",
"3@	c #8592B5",
"4@	c #173B90",
"5@	c #1F449C",
"6@	c #21459A",
"7@	c #21449A",
"8@	c #214499",
"9@	c #224599",
"0@	c #22459A",
"a@	c #2A4890",
"b@	c #606F98",
"c@	c #355FC7",
"d@	c #345CBF",
"e@	c #325ABB",
"f@	c #3359B8",
"g@	c #1E46AB",
"h@	c #153FA6",
"i@	c #133DA3",
"j@	c #143DA1",
"k@	c #0D379D",
"l@	c #5E74AD",
"m@	c #C0BCBC",
"n@	c #B4B4B8",
"o@	c #B6B6BB",
"p@	c #C1C1C4",
"q@	c #6476A2",
"r@	c #1B3D92",
"s@	c #26499E",
"t@	c #294A9E",
"u@	c #294B9E",
"v@	c #294AA0",
"w@	c #284AA0",
"x@	c #28499E",
"y@	c #2E4A94",
"z@	c #6A7594",
"A@	c #325AC0",
"B@	c #3259BB",
"C@	c #3158B8",
"D@	c #3156B6",
"E@	c #2850B0",
"F@	c #1843A7",
"G@	c #143EA4",
"H@	c #143DA2",
"I@	c #133CA0",
"J@	c #123A9C",
"K@	c #1E44A0",
"L@	c #B1B6C4",
"M@	c #C4C3C6",
"N@	c #BFBFC4",
"O@	c #BEBEC4",
"P@	c #536698",
"Q@	c #1C3F96",
"R@	c #2B4EA2",
"S@	c #2F50A2",
"T@	c #3050A2",
"U@	c #3151A3",
"V@	c #3151A4",
"W@	c #3151A5",
"X@	c #3051A5",
"Y@	c #3050A5",
"Z@	c #2F4FA5",
"`@	c #344E93",
" #	c #828895",
".#	c #2B54B7",
"+#	c #2F55B7",
"@#	c #2F55B5",
"##	c #274FAE",
"$#	c #1640A5",
"%#	c #133DA2",
"&#	c #123B9D",
"*#	c #123B9B",
"=#	c #0D3598",
"-#	c #3E5CA6",
";#	c #CECED3",
">#	c #CCCCD1",
",#	c #D5D3D5",
"'#	c #7987A8",
")#	c #1D4094",
"!#	c #3152A5",
"~#	c #3353A4",
"{#	c #3554A7",
"]#	c #3655A8",
"^#	c #3655AA",
"/#	c #3755AB",
"(#	c #3655AB",
"_#	c #3454AB",
":#	c #3453AC",
"<#	c #435893",
"[#	c #A0A2A6",
"}#	c #3658AE",
"|#	c #2B53B2",
"1#	c #274EAD",
"2#	c #163FA3",
"3#	c #133DA1",
"4#	c #133C9E",
"5#	c #113A9B",
"6#	c #113A99",
"7#	c #123A99",
"8#	c #0D3596",
"9#	c #4B66A8",
"0#	c #D1CED0",
"a#	c #D7D4D4",
"b#	c #596CA0",
"c#	c #2A4DA3",
"d#	c #3655A7",
"e#	c #3958AB",
"f#	c #3A59AD",
"g#	c #3B59AE",
"h#	c #3C5AB0",
"i#	c #3B59B0",
"j#	c #3A58B0",
"k#	c #3956B0",
"l#	c #3453B0",
"m#	c #7280A2",
"n#	c #D4D4D4",
"o#	c #49619B",
"p#	c #173FA3",
"q#	c #123B9E",
"r#	c #10399A",
"s#	c #103998",
"t#	c #113797",
"u#	c #133B96",
"v#	c #173D97",
"w#	c #2C4E9D",
"x#	c #5D70A1",
"y#	c #6072A1",
"z#	c #6476A3",
"A#	c #3C569D",
"B#	c #3C5AB1",
"C#	c #3E5BB2",
"D#	c #3E5BB5",
"E#	c #3E5BB6",
"F#	c #3E5AB6",
"G#	c #3D5AB6",
"H#	c #3C59B6",
"I#	c #3B58B6",
"J#	c #324FAC",
"K#	c #BEC2CD",
"L#	c #727A8E",
"M#	c #153EA3",
"N#	c #113A9D",
"O#	c #103798",
"P#	c #0E3796",
"Q#	c #0E3694",
"R#	c #113794",
"S#	c #1E4398",
"T#	c #1E4399",
"U#	c #20459B",
"V#	c #3151A2",
"W#	c #3151AB",
"X#	c #3E5BB4",
"Y#	c #3E5BB7",
"Z#	c #3E5BB9",
"`#	c #3E5BBA",
" $	c #3E5BBB",
".$	c #3E5ABB",
"+$	c #3D5ABB",
"@$	c #3C59BB",
"#$	c #3A58BB",
"$$	c #465A9E",
"%$	c #E9E9EA",
"&$	c #797878",
"*$	c #B8B8B9",
"=$	c #27458D",
"-$	c #0E3699",
";$	c #103797",
">$	c #0E3594",
",$	c #0D3592",
"'$	c #0E3591",
")$	c #123792",
"!$	c #1A3F96",
"~$	c #405DA3",
"{$	c #98A1B9",
"]$	c #B4B5BE",
"^$	c #B2B6C5",
"/$	c #6E83BF",
"($	c #3956B4",
"_$	c #3E5BB8",
":$	c #3E5BBE",
"<$	c #3E5AC0",
"[$	c #3D5AC0",
"}$	c #3D5AC1",
"|$	c #3D59C1",
"1$	c #3C59C0",
"2$	c #324FBC",
"3$	c #9FA5B9",
"4$	c #6D7486",
"5$	c #083191",
"6$	c #0D3593",
"7$	c #0C3491",
"8$	c #0C3490",
"9$	c #0E3590",
"0$	c #143A92",
"a$	c #1C4094",
"b$	c #23479A",
"c$	c #97A0B9",
"d$	c #C2BFBF",
"e$	c #B7B6BA",
"f$	c #BFBCBF",
"g$	c #C7C9D1",
"h$	c #4B65B8",
"i$	c #3B58BE",
"j$	c #3E59C0",
"k$	c #3D59C2",
"l$	c #3C58C4",
"m$	c #3C56C5",
"n$	c #3A55C5",
"o$	c #3A55C4",
"p$	c #3754C5",
"q$	c #4E60A0",
"r$	c #ECECEC",
"s$	c #D9D9D9",
"t$	c #42547C",
"u$	c #042F8E",
"v$	c #0B338F",
"w$	c #0C338E",
"x$	c #11368F",
"y$	c #183C91",
"z$	c #1F4396",
"A$	c #2B4D9D",
"B$	c #AFB5C5",
"C$	c #C6C4C7",
"D$	c #BEBEC3",
"E$	c #C2C2C6",
"F$	c #D4D3D6",
"G$	c #5267B6",
"H$	c #3955C2",
"I$	c #3A55C6",
"J$	c #3753C9",
"K$	c #3653C9",
"L$	c #3652C9",
"M$	c #3652CA",
"N$	c #354DAD",
"O$	c #CFD1D7",
"P$	c #B9B8B8",
"Q$	c #BFC0C0",
"R$	c #374D7E",
"S$	c #062F8B",
"T$	c #0C338C",
"U$	c #12378E",
"V$	c #1C3F93",
"W$	c #234699",
"X$	c #27499D",
"Y$	c #7688B8",
"Z$	c #D4D3D4",
"`$	c #D8D6D6",
" %	c #DDDAD9",
".%	c #A4ABC3",
"+%	c #3751B4",
"@%	c #3551CA",
"#%	c #3450CC",
"$%	c #324FCC",
"%%	c #324ECD",
"&%	c #334BB7",
"*%	c #B2B6C3",
"=%	c #BFC0C1",
"-%	c #3A4D79",
";%	c #0B328A",
">%	c #14398F",
",%	c #1E4194",
"'%	c #27499B",
")%	c #2F4FA1",
"!%	c #3252A6",
"~%	c #5F76B2",
"{%	c #8592BA",
"]%	c #7182B6",
"^%	c #3B53AF",
"/%	c #3754C4",
"(%	c #3450CB",
"_%	c #314ECD",
":%	c #2F4ACE",
"<%	c #2D49D1",
"[%	c #354CB0",
"}%	c #ADB2C2",
"|%	c #5C6781",
"1%	c #224086",
"2%	c #1D4096",
"3%	c #294A9C",
"4%	c #3252A3",
"5%	c #3756AB",
"6%	c #3554AE",
"7%	c #3250B0",
"8%	c #3452B8",
"9%	c #3B58C3",
"0%	c #314DCE",
"a%	c #2C49D1",
"b%	c #2A44C9",
"c%	c #4E5EA2",
"d%	c #D0D2D8",
"e%	c #ADAFB4",
"f%	c #536081",
"g%	c #354E8E",
"h%	c #3352A2",
"i%	c #3758AD",
"j%	c #3D5AB2",
"k%	c #3F5BBA",
"l%	c #3F5BC0",
"m%	c #3D58C4",
"n%	c #3954CA",
"o%	c #334FCE",
"p%	c #334ABD",
"q%	c #4657A0",
"r%	c #A2A7BA",
"s%	c #CECFD1",
"t%	c #888E9D",
"u%	c #5D6888",
"v%	c #4B5B89",
"w%	c #42548F",
"x%	c #425494",
"y%	c #465794",
"z%	c #586596",
"A%	c #7D86A4",
"B%	c #C6C9D1",
"                    . + @ + # $ $ # + @ + .                     ",
"                . % & * = - ; > > ; - = * & % .                 ",
"            @ , ' ) ! - ~ { ] ^ / ( _ : < ! ) ' , @             ",
"          [ } | ; 1 2 3 4 5 6 7 8 9 0 a b c d ; | } [           ",
"        e f g h i j k l m n o p q r s t u v w x y g f e         ",
"      [ f z A B C D 7 E o F G H I J K L M N O P Q R z f [       ",
"    @ } g A S T U V W X Y Z `  ...+.@.#.$.%.&.*.=.-.;.g } @     ",
"    , | h >.,.'.).o !.~.{.].^.^.^./.(._.:.<.[.}.|.1.2.3.| ,     ",
"  . ' ; 4.5.6.7.8.9.0.a.^.^.^.^.^.^.b.c.d.e.f.g.h.i.j.k.; ' .   ",
"  % ) l.m.n.o.p.q.r.s.t.^.^.^.^.^.^.u.v.w.x.y.z.A.B.C.D.E.) %   ",
". & ! F.G.H.I.r J.K.L.M.N.O.P.Q.R.S.T.U.V.W.X.Y.Z.`. +.+++! & . ",
"+ * @+#+$+%+r.&+*+L =+-+;+>+,+'+)+!+~+v.{+]+^+/+(+_+:+<+[+}+|++ ",
"@ = 1+2+3+4+5+6+7+8+9+0+a+b+c+d+e+f+g+h+i+j+k+l+m+n+o+p+q+r+s+@ ",
"+ - t+u+v+*+w+x+N y+z+A+*.B+C+D+E+F+G+H+I+J+K+L+M+N+O+P+Q+R+- + ",
"# ; S+T+U+M N V+W+X+Y+Z+f.`+ @.@+@@@#@$@%@&@*@o+o+=@-@;@>@,@; # ",
"$ > '@)@!@~@{@]@^@Z+/@(@_@:@<@[@}@|@1@2@3@4@5@6@7@8@9@7@0@a@> $ ",
"$ > b@c@d@]@e@f@C+g@h@i@j@k@l@m@n@o@p@q@r@s@t@u@u@u@v@w@x@y@> $ ",
"# ; z@A@B@C@D@E@F@G@H@I@J@K@L@M@N@O@P@Q@R@S@T@U@V@W@X@Y@Z@`@; # ",
"+ -  #.#+#@###$#%#I@&#*#=#-#;#>#,#'#)#!#~#{#]#^#/#/#(#_#:#<#- + ",
"@ = [#}#|#1#2#3#4#5#6#7#8#9#0#G+a#b#c#d#e#f#g#h#h#i#j#k#l#m#s+@ ",
"+ * n#o#1#p#q#&#r#s#t#u#v#w#x#y#z#A#(#g#B#C#D#E#F#G#H#I#J#K#|++ ",
". & ! L#M#N#5#O#P#Q#R#q+S#T#U#V#Y@W#h#X#Y#Z#`# $.$+$@$#$$$%$&$. ",
"  % ) *$=$-$;$>$,$'$)$!$=@~${$]$^$/$($_$ $:$<$[$}$|$1$2$3$= %   ",
"  . ' ; 4$5$6$7$8$9$0$a$b$c$d$e$f$g$h$i$j$k$l$m$n$o$p$q$r$' .   ",
"    , | s$t$u$v$w$x$y$z$A$B$C$D$E$F$G$H$l$I$J$K$L$M$N$O$P$,     ",
"    @ } g Q$R$S$T$U$V$W$X$Y$Z$`$ %.%+%I$J$@%#%$%%%&%*%n#} @     ",
"      [ f z =%-%;%>%,%'%)%!%~%{%]%^%/%J$(%_%:%<%[%}%z f [       ",
"        e f g s$|%1%2%3%4%5%6%7%8%9%I$@%0%a%b%c%d%g f e         ",
"          [ } | ; e%f%g%h%i%j%k%l%m%n%o%p%q%r%; | } [           ",
"            @ , ' ) ! s%t%u%v%w%x%y%z%A%B%! ) ' , @             ",
"                . % & * = - ; > > ; - = * & % .                 ",
"                    . + @ + # $ $ # + @ + .                     "};
