/* XPM */
static char * ArtProv_DOWN_xpm[] = {
"16 16 100 2",
"  	c None",
". 	c #3A7404",
"+ 	c #3A7304",
"@ 	c #C7DEB0",
"# 	c #C3DCAB",
"$ 	c #BFDAA6",
"% 	c #B1D291",
"& 	c #A3CA7E",
"* 	c #C8DFB1",
"= 	c #8DBE5F",
"- 	c #86BA55",
"; 	c #71AE37",
"> 	c #4E9A06",
", 	c #C7DFB1",
"' 	c #78B241",
") 	c #8CBD5D",
"! 	c #85B954",
"~ 	c #7CB447",
"{ 	c #3B7403",
"] 	c #3A7504",
"^ 	c #C5DDAD",
"/ 	c #89BC59",
"( 	c #82B850",
"_ 	c #6FAD34",
": 	c #3A7405",
"< 	c #568827",
"[ 	c #C2DBAA",
"} 	c #C6DEAF",
"| 	c #C2DCAA",
"1 	c #88BD56",
"2 	c #82BA4D",
"3 	c #63AA1F",
"4 	c #53A208",
"5 	c #A5CE7F",
"6 	c #A4CD7E",
"7 	c #A4CC7E",
"8 	c #9FC778",
"9 	c #4A8217",
"0 	c #3B7304",
"a 	c #7AA44F",
"b 	c #B8D69B",
"c 	c #8DBE5D",
"d 	c #8AC058",
"e 	c #87C051",
"f 	c #7EBC42",
"g 	c #5AAB0C",
"h 	c #59AB0B",
"i 	c #59AA0A",
"j 	c #58A90C",
"k 	c #97C768",
"l 	c #649A34",
"m 	c #3B7404",
"n 	c #3F6A00",
"o 	c #397304",
"p 	c #98BE75",
"q 	c #A9D183",
"r 	c #89C252",
"s 	c #87C34D",
"t 	c #69B61E",
"u 	c #5FB40D",
"v 	c #5EB30D",
"w 	c #89C54E",
"x 	c #83B655",
"y 	c #387105",
"z 	c #40780D",
"A 	c #B1D390",
"B 	c #98CC65",
"C 	c #7DC23B",
"D 	c #62B90F",
"E 	c #65BC0F",
"F 	c #65BD10",
"G 	c #7BC532",
"H 	c #9FCE71",
"I 	c #3F780A",
"J 	c #578C26",
"K 	c #B7DB94",
"L 	c #79C331",
"M 	c #67C011",
"N 	c #6AC512",
"O 	c #73C91F",
"P 	c #A8DB78",
"Q 	c #52891E",
"R 	c #3B7504",
"S 	c #7AAA4C",
"T 	c #A0D66D",
"U 	c #69C412",
"V 	c #6ECB14",
"W 	c #A5E06C",
"X 	c #71A73F",
"Y 	c #8CBE5D",
"Z 	c #8DD14C",
"` 	c #90D54E",
" .	c #91C45F",
"..	c #3C7504",
"+.	c #427A0E",
"@.	c #A2D174",
"#.	c #A3D375",
"$.	c #427B0E",
"%.	c #568B24",
"&.	c #3C7603",
"        . + + + + + + .         ",
"        + @ # $ % & & +         ",
"        + * = - ; > & +         ",
"        + , = - ' > & +         ",
"        + @ ) ! ~ > & +         ",
"{ + + + ] ^ / ( _ > & ] + + + { ",
": < [ } ^ | 1 2 3 4 5 6 7 8 9 : ",
"  0 a b c d e f g h i j k l m   ",
"  n o p q r s t u u v w x . n   ",
"    y z A B C D E F G H I y     ",
"      : J K L M N O P Q :       ",
"        R S T U V W X R         ",
"        n ] Y Z `  ...n         ",
"          y +.@.#.$.y           ",
"            : %.%.:             ",
"              &.&.              "};
