/* XPM */
static char * ArtProv_FILESAVE_xpm[] = {
"16 16 116 2",
"  	c None",
". 	c #6C8577",
"+ 	c #4C7991",
"@ 	c #37678C",
"# 	c #38678A",
"$ 	c #38678B",
"% 	c #3C6889",
"& 	c #497080",
"* 	c #58787A",
"= 	c #416F92",
"- 	c #6195BA",
"; 	c #80ACD0",
"> 	c #B0CEE6",
", 	c #D0DFEF",
"' 	c #C5DBEC",
") 	c #9BC2DF",
"! 	c #678BA0",
"~ 	c #426D88",
"{ 	c #677A5E",
"] 	c #6B7F88",
"^ 	c #667173",
"/ 	c #627075",
"( 	c #4A6D85",
"_ 	c #41749A",
": 	c #44789F",
"< 	c #9EBFD9",
"[ 	c #C1D9EB",
"} 	c #5186AF",
"| 	c #4E6A7D",
"1 	c #6E706B",
"2 	c #6D6F6B",
"3 	c #6B716E",
"4 	c #E2E6DD",
"5 	c #FFFFFF",
"6 	c #DDE1D6",
"7 	c #C9D6DD",
"8 	c #6E99B6",
"9 	c #ABCBE2",
"0 	c #92B7D3",
"a 	c #547D9B",
"b 	c #D5DFE5",
"c 	c #F4F4F4",
"d 	c #72756B",
"e 	c #FDFDFD",
"f 	c #EEEEEE",
"g 	c #EDEDED",
"h 	c #DFE2DE",
"i 	c #7798B0",
"j 	c #79A7CA",
"k 	c #8FB3CE",
"l 	c #3D6B8E",
"m 	c #ACBCC3",
"n 	c #EDEDEE",
"o 	c #EDEEEE",
"p 	c #EDEEED",
"q 	c #F3F4F3",
"r 	c #FCFBFC",
"s 	c #EBECEC",
"t 	c #5892BD",
"u 	c #ECECEC",
"v 	c #F3F3F3",
"w 	c #FAFAFA",
"x 	c #E9E9EA",
"y 	c #CACFC4",
"z 	c #98BFDC",
"A 	c #719FBF",
"B 	c #739FC0",
"C 	c #96BBD8",
"D 	c #95A9AF",
"E 	c #EAE9EA",
"F 	c #F2F2F2",
"G 	c #F9F9F9",
"H 	c #E4E4E4",
"I 	c #C5CBBF",
"J 	c #ABC8DF",
"K 	c #92A6AC",
"L 	c #F1F1F1",
"M 	c #ACCBE3",
"N 	c #3B6B8F",
"O 	c #F7F7F7",
"P 	c #E3E3E3",
"Q 	c #CED4C8",
"R 	c #3F6C8E",
"S 	c #9AAEB4",
"T 	c #FCFCFC",
"U 	c #F0F0F0",
"V 	c #FEFEFE",
"W 	c #EBEBEB",
"X 	c #CECECE",
"Y 	c #C9C9C9",
"Z 	c #C5C5C5",
"` 	c #D6D6D6",
" .	c #9F9F9F",
"..	c #AFAFAF",
"+.	c #BCBCBC",
"@.	c #C4C4C4",
"#.	c #C8C8C8",
"$.	c #D0D0D0",
"%.	c #A9A9A9",
"&.	c #D2D2D2",
"*.	c #B9B9B9",
"=.	c #CACACA",
"-.	c #CDCDCD",
";.	c #C3C3C3",
">.	c #AAAAA9",
",.	c #B4B4B4",
"'.	c #C2C2C2",
").	c #CBCBCB",
"!.	c #A8A7A8",
"~.	c #D1D1D1",
"{.	c #A8A7A7",
"].	c #B7B6B6",
"^.	c #DDDDDD",
"/.	c #DCDCDC",
"(.	c #D5D5D5",
"_.	c #CFCFCF",
". + @ # $ $ % & *               ",
"= - ; > , ' ) ! ~ {             ",
"] ^ / ( _ : < [ } | 1 1 1 1 1 2 ",
"3 4 5 6 7 8 $ 9 0 a b 5 5 5 c 1 ",
"d e f g h i $ j k l m n o p q 1 ",
"1 r s $ $ $ $ j t $ $ $ $ u v 1 ",
"1 w x y $ z A A A B C $ D E F 1 ",
"1 G w H I $ z B B J $ K H c L 1 ",
"1 G f w H I $ M z N K H w f L 1 ",
"1 O P f w w Q R $ S w T f P U 1 ",
"1 V 5 5 5 5 5 5 5 c c W W P U 1 ",
"1 X Y Y Y Y Z Y Y Z Z Z Z Z ` 1 ",
"1 X Z  ...+.@.#.$.%.&.%.&.*.=.1 ",
"1 -.;.>.,.'.@.#.).!.~.{.~.].=.1 ",
"1 ^./././.(.(._._._._._._._.=.1 ",
"2 1 1 1 1 1 1 1 1 1 1 1 1 1 1 2 "};
