/* XPM */
static char * ArtProv_INFORMATION_xpm[] = {
"32 32 592 2",
"  	c None",
". 	c #676767",
"+ 	c #6A6767",
"@ 	c #696969",
"# 	c #6A6969",
"$ 	c #686767",
"% 	c #747474",
"& 	c #767676",
"* 	c #9D9D9D",
"= 	c #BFBFBF",
"- 	c #DADADA",
"; 	c #EDEDED",
"> 	c #FBFBFB",
", 	c #7A7A7A",
"' 	c #898888",
") 	c #BEBEBE",
"! 	c #E9E9E9",
"~ 	c #DADADB",
"{ 	c #BDBFC4",
"] 	c #A9AFBE",
"^ 	c #99A3BF",
"/ 	c #8D9ABF",
"( 	c #8895B8",
"_ 	c #8691AC",
": 	c #8F95A6",
"< 	c #A8AAB0",
"[ 	c #D5D6D7",
"} 	c #6A6666",
"| 	c #838383",
"1 	c #B6B5B5",
"2 	c #EBEBEB",
"3 	c #C7C8CA",
"4 	c #B8BFD2",
"5 	c #9CB1E6",
"6 	c #7B99E2",
"7 	c #7091E1",
"8 	c #6B8DE0",
"9 	c #6689DE",
"0 	c #6387DC",
"a 	c #6185D7",
"b 	c #6281D0",
"c 	c #607DC8",
"d 	c #677DB7",
"e 	c #7E889F",
"f 	c #B9BABE",
"g 	c #686868",
"h 	c #888787",
"i 	c #D1D1D1",
"j 	c #DDDEDE",
"k 	c #BABFCC",
"l 	c #9AB2EE",
"m 	c #7394E5",
"n 	c #688DE7",
"o 	c #658CE8",
"p 	c #618AE9",
"q 	c #5C85E7",
"r 	c #517BE4",
"s 	c #4C78E1",
"t 	c #517ADF",
"u 	c #567CDD",
"v 	c #557AD7",
"w 	c #5679CF",
"x 	c #5777C6",
"y 	c #5D76B5",
"z 	c #80889B",
"A 	c #E1E1E1",
"B 	c #CACBCB",
"C 	c #AFBBD8",
"D 	c #7B99E6",
"E 	c #678BE5",
"F 	c #628AEA",
"G 	c #6087E9",
"H 	c #5B85E9",
"I 	c #5A83E7",
"J 	c #5681E7",
"K 	c #91ADF2",
"L 	c #A5BDF5",
"M 	c #678CE6",
"N 	c #4973DA",
"O 	c #4E77DA",
"P 	c #4C75D6",
"Q 	c #4C72D1",
"R 	c #4E71C7",
"S 	c #5371B9",
"T 	c #65749A",
"U 	c #C1C2C4",
"V 	c #A2B2D9",
"W 	c #6D8FE0",
"X 	c #6187E3",
"Y 	c #5C85E8",
"Z 	c #5A84E7",
"` 	c #5983E8",
" .	c #5882E6",
"..	c #517BE3",
"+.	c #B8CBF9",
"@.	c #FFFFFF",
"#.	c #F4FAFF",
"$.	c #6487DF",
"%.	c #456ED6",
"&.	c #4871D5",
"*.	c #466FD1",
"=.	c #446CCE",
"-.	c #466BC7",
";.	c #4D6CB8",
">.	c #5D6F9A",
",.	c #9FABCB",
"'.	c #6C8DDF",
").	c #5D84E1",
"!.	c #5882E5",
"~.	c #5881E3",
"{.	c #5680E3",
"].	c #517BE1",
"^.	c #5B83E3",
"/.	c #FCFEFF",
"(.	c #A7BAE8",
"_.	c #3864D0",
":.	c #466FD2",
"<.	c #426BD0",
"[.	c #4168CC",
"}.	c #3F67C9",
"|.	c #4166C2",
"1.	c #4867B4",
"2.	c #5D6B91",
"3.	c #D9D9DA",
"4.	c #9CA2AE",
"5.	c #7393E0",
"6.	c #5980DD",
"7.	c #547DE0",
"8.	c #537CE1",
"9.	c #527CE1",
"0.	c #537BE0",
"a.	c #527BE0",
"b.	c #4F79DF",
"c.	c #4E77DC",
"d.	c #DBE4FB",
"e.	c #7A92CF",
"f.	c #3B64D0",
"g.	c #446BD0",
"h.	c #4068CE",
"i.	c #3E66CB",
"j.	c #3C63C8",
"k.	c #3C62C6",
"l.	c #3D61BE",
"m.	c #4562AC",
"n.	c #747C90",
"o.	c #BFC0C1",
"p.	c #7C95D2",
"q.	c #5A7ED8",
"r.	c #5179DC",
"s.	c #5178DD",
"t.	c #5078DC",
"u.	c #4F78DC",
"v.	c #4F77DC",
"w.	c #4E77DB",
"x.	c #4670D9",
"y.	c #6385DA",
"z.	c #CDD5EA",
"A.	c #E0E4ED",
"B.	c #92A2CB",
"C.	c #3B60C1",
"D.	c #4269D2",
"E.	c #4067CE",
"F.	c #3E64CB",
"G.	c #3B62C9",
"H.	c #3861C7",
"I.	c #385FC4",
"J.	c #375CC0",
"K.	c #3B5DB7",
"L.	c #465E9F",
"M.	c #B4B6B9",
"N.	c #8C93A5",
"O.	c #6184D5",
"P.	c #5076D6",
"Q.	c #4D74D9",
"R.	c #4C75DA",
"S.	c #4C74D9",
"T.	c #4A73D8",
"U.	c #4972D8",
"V.	c #4A72D8",
"W.	c #3E67D3",
"X.	c #375FC9",
"Y.	c #385DBF",
"Z.	c #3159C5",
"`.	c #3F67D2",
" +	c #4269D0",
".+	c #3F66CE",
"++	c #3D63CB",
"@+	c #3B61C8",
"#+	c #385EC6",
"$+	c #365DC4",
"%+	c #355AC0",
"&+	c #355ABB",
"*+	c #3D5CAC",
"=+	c #656F89",
"-+	c #D6D6D7",
";+	c #7287BC",
">+	c #5175CF",
",+	c #4972D5",
"'+	c #4871D6",
")+	c #4871D7",
"!+	c #4770D6",
"~+	c #476FD5",
"{+	c #476ED5",
"]+	c #446AD3",
"^+	c #4A6ED5",
"/+	c #4C71D6",
"(+	c #4B70D6",
"_+	c #4D71D5",
":+	c #4166CD",
"<+	c #2F56BF",
"[+	c #2D53BC",
"}+	c #284FB8",
"|+	c #264DB5",
"1+	c #254AB4",
"2+	c #254CB3",
"3+	c #264CB5",
"4+	c #294EB4",
"5+	c #3153AD",
"6+	c #425895",
"7+	c #D2D2D3",
"8+	c #9E9E9E",
"9+	c #A6A8AD",
"0+	c #5B79C3",
"a+	c #4A71CD",
"b+	c #466ED2",
"c+	c #456ED2",
"d+	c #456ED3",
"e+	c #456CD3",
"f+	c #456CD2",
"g+	c #446BD2",
"h+	c #426AD3",
"i+	c #426AD2",
"j+	c #A3B3DD",
"k+	c #F5F5F0",
"l+	c #EBEAE7",
"m+	c #C3CCE6",
"n+	c #2B4283",
"o+	c #0A31A2",
"p+	c #1940A9",
"q+	c #193FA8",
"r+	c #193FA9",
"s+	c #1A40A9",
"t+	c #1940A8",
"u+	c #1A3FA8",
"v+	c #1B40A9",
"w+	c #2144A5",
"x+	c #304C99",
"y+	c #9598A0",
"z+	c #878D9A",
"A+	c #5071C3",
"B+	c #446BCD",
"C+	c #426ACF",
"D+	c #416AD0",
"E+	c #406AD0",
"F+	c #4169D0",
"G+	c #4169D1",
"H+	c #3960CB",
"I+	c #2F55BE",
"J+	c #CFCECE",
"K+	c #D0CDCA",
"L+	c #C1C1C1",
"M+	c #E5E4E3",
"N+	c #324884",
"O+	c #0A30A3",
"P+	c #1B41AD",
"Q+	c #1B40AB",
"R+	c #1A40AC",
"S+	c #1A40AB",
"T+	c #1E42A8",
"U+	c #2A489C",
"V+	c #697084",
"W+	c #727B95",
"X+	c #4B6EC3",
"Y+	c #4068CB",
"Z+	c #3E67CD",
"`+	c #3E66CD",
" @	c #3F67CF",
".@	c #3D63CD",
"+@	c #2E55BE",
"@@	c #1F45AF",
"#@	c #CACCCC",
"$@	c #C5C4C0",
"%@	c #B9B9B9",
"&@	c #E3E2E1",
"*@	c #314684",
"=@	c #0A30A4",
"-@	c #1A3FAC",
";@	c #1A3FAB",
">@	c #1D40A9",
",@	c #28469F",
"'@	c #4B5878",
")@	c #687497",
"!@	c #4669C1",
"~@	c #3D64C7",
"{@	c #3B63C9",
"]@	c #3B62CA",
"^@	c #3C62CA",
"/@	c #3C63CB",
"(@	c #345BC5",
"_@	c #2248B3",
":@	c #193FAB",
"<@	c #2348B1",
"[@	c #CACAC9",
"}@	c #BCB9B7",
"|@	c #B1B1B1",
"1@	c #E1E0DE",
"2@	c #0A2FA5",
"3@	c #1A40AE",
"4@	c #1A3EAD",
"5@	c #1A3EAC",
"6@	c #1C40AA",
"7@	c #2544A1",
"8@	c #404E7A",
"9@	c #657295",
"0@	c #4366BF",
"a@	c #3961C5",
"b@	c #385FC7",
"c@	c #3860C7",
"d@	c #3960C8",
"e@	c #2D55BE",
"f@	c #1D44AE",
"g@	c #1B41AC",
"h@	c #1D42AE",
"i@	c #1A40AD",
"j@	c #2347B3",
"k@	c #C8C8C9",
"l@	c #B5B3AF",
"m@	c #ADADAC",
"n@	c #E0DFDE",
"o@	c #0A30A6",
"p@	c #1A3FAF",
"q@	c #1A3EAE",
"r@	c #1C3FAB",
"s@	c #2545A2",
"t@	c #3F4E7A",
"u@	c #6A748E",
"v@	c #4163B9",
"w@	c #375EC2",
"x@	c #355DC5",
"y@	c #365EC6",
"z@	c #2B51BC",
"A@	c #1C42AE",
"B@	c #193EAE",
"C@	c #2448B5",
"D@	c #C6C7C9",
"E@	c #AFAEA9",
"F@	c #ABABAB",
"G@	c #0B2FA7",
"H@	c #1B3FB1",
"I@	c #1B3EB1",
"J@	c #1B3EB0",
"K@	c #1A3EAF",
"L@	c #1D40AC",
"M@	c #2845A1",
"N@	c #495577",
"O@	c #7C838F",
"P@	c #3D5FB3",
"Q@	c #365CBE",
"R@	c #355AC1",
"S@	c #2A51BA",
"T@	c #1D44AF",
"U@	c #1D42AF",
"V@	c #1C41AF",
"W@	c #C6C7C7",
"X@	c #AEAEAE",
"Y@	c #E1E1DE",
"Z@	c #314685",
"`@	c #0B2FA9",
" #	c #1B3FB5",
".#	c #1B3EB4",
"+#	c #1C3EB4",
"@#	c #1B3EB3",
"##	c #1C3EB0",
"$#	c #1F40AD",
"%#	c #2B47A0",
"&#	c #646B80",
"*#	c #9EA0A6",
"=#	c #415DAA",
"-#	c #355ABA",
";#	c #2C52B9",
">#	c #1E45AF",
",#	c #1D41AF",
"'#	c #1C41B0",
")#	c #193EAF",
"!#	c #2348B6",
"~#	c #B4B3AF",
"{#	c #B5B5B6",
"]#	c #E4E4E1",
"^#	c #324686",
"/#	c #0C2FAD",
"(#	c #1C40B8",
"_#	c #1D3EB7",
":#	c #1C3FB7",
"<#	c #1C3EB7",
"[#	c #1C3EB6",
"}#	c #1D3EB3",
"|#	c #2142AE",
"1#	c #284298",
"2#	c #94979F",
"3#	c #D3D3D4",
"4#	c #4C619B",
"5#	c #3457B3",
"6#	c #2149B0",
"7#	c #1E45B0",
"8#	c #1E44B0",
"9#	c #1D44B0",
"0#	c #1D42B0",
"a#	c #1C41B1",
"b#	c #193EB1",
"c#	c #2346B7",
"d#	c #BDBCB7",
"e#	c #BFBFC0",
"f#	c #E8E6E5",
"g#	c #0C2FAF",
"h#	c #1D40BC",
"i#	c #1E3FBA",
"j#	c #1D3FBA",
"k#	c #1D3FB9",
"l#	c #1D3FB8",
"m#	c #1E3FB6",
"n#	c #2744AD",
"o#	c #31458B",
"p#	c #6C7389",
"q#	c #3150A6",
"r#	c #2347AC",
"s#	c #1D41B1",
"t#	c #1A3EB3",
"u#	c #2346B9",
"v#	c #D0D0CF",
"w#	c #C7C6C2",
"x#	c #EBEBE9",
"y#	c #334787",
"z#	c #0D2FB1",
"A#	c #1E40BF",
"B#	c #1E3FBE",
"C#	c #1E3FBD",
"D#	c #1E3FBB",
"E#	c #2342B6",
"F#	c #2D48A8",
"G#	c #5A6280",
"H#	c #777676",
"I#	c #B5B6B8",
"J#	c #364F92",
"K#	c #284AA7",
"L#	c #2045AE",
"M#	c #1F44B0",
"N#	c #1D42B1",
"O#	c #1C40B3",
"P#	c #1A3EB4",
"Q#	c #2246B9",
"R#	c #D5D7D8",
"S#	c #D6D5D0",
"T#	c #DFDEDF",
"U#	c #F2F1EF",
"V#	c #334888",
"W#	c #0D2EB4",
"X#	c #2041C1",
"Y#	c #1F40C1",
"Z#	c #1F40C0",
"`#	c #203FBF",
" $	c #2140BD",
".$	c #2946B4",
"+$	c #2F4393",
"@$	c #B4B5B9",
"#$	c #6D7384",
"$$	c #2E4A9E",
"%$	c #2547AB",
"&$	c #1F45B0",
"*$	c #1D41B3",
"=$	c #1D41B4",
"-$	c #1D40B5",
";$	c #1A3EB6",
">$	c #2245B9",
",$	c #DFDFE3",
"'$	c #EBE9E7",
")$	c #F3F3F4",
"!$	c #F3F3F2",
"~$	c #354888",
"{$	c #0D2EB5",
"]$	c #2241C4",
"^$	c #2040C4",
"/$	c #2040C2",
"($	c #2241C0",
"_$	c #2644BA",
":$	c #334BAA",
"<$	c #686F88",
"[$	c #D8D8D9",
"}$	c #4B587D",
"|$	c #2D4AA1",
"1$	c #2447AD",
"2$	c #1E42B2",
"3$	c #1E41B3",
"4$	c #1D41B5",
"5$	c #1D40B7",
"6$	c #1B3EB8",
"7$	c #2042B9",
"8$	c #EBEBED",
"9$	c #FDFDFA",
"0$	c #FCFCFD",
"a$	c #364A8A",
"b$	c #0D2FB7",
"c$	c #2342C6",
"d$	c #2241C6",
"e$	c #2341C5",
"f$	c #2441C3",
"g$	c #2744BE",
"h$	c #324AB0",
"i$	c #465384",
"j$	c #DBDBDB",
"k$	c #B7B6B6",
"l$	c #BEBEC0",
"m$	c #435484",
"n$	c #2C49A2",
"o$	c #2445AE",
"p$	c #1F42B3",
"q$	c #1F41B5",
"r$	c #1E41B8",
"s$	c #1C3EBA",
"t$	c #1E3FB9",
"u$	c #B9C0D3",
"v$	c #F5F5F6",
"w$	c #F5F5F5",
"x$	c #C7CCDD",
"y$	c #2F4286",
"z$	c #1130B9",
"A$	c #2342C8",
"B$	c #2341C6",
"C$	c #2442C5",
"D$	c #2945BF",
"E$	c #334BB3",
"F$	c #404E89",
"G$	c #C1C2C5",
"H$	c #D2D2D2",
"I$	c #BFBFC1",
"J$	c #4A577E",
"K$	c #2D48A0",
"L$	c #2747AB",
"M$	c #2243B3",
"N$	c #2042B7",
"O$	c #2041BC",
"P$	c #344589",
"Q$	c #465182",
"R$	c #445084",
"S$	c #414D83",
"T$	c #2841B3",
"U$	c #213FC7",
"V$	c #2543C7",
"W$	c #2844C3",
"X$	c #2D47BC",
"Y$	c #344BB0",
"Z$	c #495487",
"`$	c #C3C3C6",
" %	c #6B7083",
".%	c #314893",
"+%	c #2A46A7",
"@%	c #2846B2",
"#%	c #2544B8",
"$%	c #2343BD",
"%%	c #1A3ABC",
"&%	c #1534B5",
"*%	c #1634B5",
"=%	c #1736B8",
"-%	c #2341C3",
";%	c #2A47C3",
">%	c #2C47BD",
",%	c #3149B4",
"'%	c #32469C",
")%	c #6C718B",
"!%	c #DBDCDC",
"~%	c #B1B2B5",
"{%	c #5D6580",
"]%	c #364A92",
"^%	c #2D45A3",
"/%	c #2C46AE",
"(%	c #2B46B4",
"_%	c #2B46B9",
":%	c #2C46BB",
"<%	c #2D47B8",
"[%	c #2F48B5",
"}%	c #2D45AB",
"|%	c #354896",
"1%	c #5E6585",
"2%	c #B6B8BC",
"3%	c #D1D1D2",
"4%	c #93969F",
"5%	c #656B82",
"6%	c #4D577E",
"7%	c #424E83",
"8%	c #4D5780",
"9%	c #676D86",
"0%	c #9698A1",
"a%	c #D3D4D5",
"                    . + @ + # $ $ # + @ + .                     ",
"                . % & * = - ; > > ; - = * & % .                 ",
"            @ , ' ) ! ~ { ] ^ / ( _ : < [ ! ) ' , @             ",
"          } | 1 2 3 4 5 6 7 8 9 0 a b c d e f 2 1 | }           ",
"        g h i j k l m n o p q r s t u v w x y z ~ i h g         ",
"      } h A B C D E F G H I J K L M N O P Q R S T U A h }       ",
"    @ | i B V W X Y Z `  ...+.@.@.#.$.%.&.*.=.-.;.>.U i | @     ",
"    , 1 j ,.'.).!.~.{.{.].^./.@.@.@.(._.:.<.[.}.|.1.2.3.1 ,     ",
"  . ' 2 4.5.6.7.8.9.0.a.b.c.d.@.@.@.e.f.g.h.i.j.k.l.m.n.2 ' .   ",
"  % ) o.p.q.r.s.t.u.u.v.w.x.y.z.A.B.C.D.E.F.G.H.I.J.K.L.M.) %   ",
". & ! N.O.P.Q.R.S.S.S.T.U.V.W.X.Y.Z.`. +.+++@+#+$+%+&+*+=+! & . ",
"+ * -+;+>+,+'+)+)+'+!+~+{+]+^+/+(+_+:+<+[+}+|+1+2+3+4+5+6+7+8++ ",
"@ = 9+0+a+b+c+d+e+e+f+g+h+i+j+k+l+m+n+o+p+q+r+s+t+u+v+w+x+y+= @ ",
"+ - z+A+B+C+D+E+F+F+F+G+H+I+J+K+L+M+N+O+P+Q+Q+R+S+Q+Q+T+U+V+- + ",
"# ; W+X+Y+Z+`+`+`+ @.@+@P+@@#@$@%@&@*@=@P+-@-@-@-@;@;@>@,@'@; # ",
"$ > )@!@~@{@]@^@/@(@_@S+:@<@[@}@|@1@*@2@3@4@4@4@4@5@5@6@7@8@> $ ",
"$ > 9@0@a@b@c@d@e@f@g@h@i@j@k@l@m@n@*@o@p@q@q@q@q@q@4@r@s@t@> $ ",
"# ; u@v@w@x@y@z@f@h@h@A@B@C@D@E@F@1@*@G@H@I@J@J@J@K@q@L@M@N@; # ",
"+ - O@P@Q@R@S@f@T@U@U@V@B@C@W@E@X@Y@Z@`@ #.#+#+#@#@###$#%#&#- + ",
"@ = *#=#-#;#>#>#U@U@,#'#)#!#D@~#{#]#^#/#(#_#:#<#<#[#}#|#1#2#= @ ",
"+ * 3#4#5#6#7#8#9#0#'#a#b#c#k@d#e#f#^#g#h#i#j#j#k#l#m#n#o#7+8++ ",
". & ! p#q#r#@@8#0#s#s#a#t#u#v#w#B x#y#z#A#B#B#C#C#D#E#F#G#! H#. ",
"  % ) I#J#K#L#M#N#s#s#O#P#Q#R#S#T#U#V#W#X#Y#Z#Z#`# $.$+$@$= %   ",
"  . ' 2 #$$$%$&$s#*$=$-$;$>$,$'$)$!$~${$]$^$^$/$($_$:$<$2 ' .   ",
"    , 1 [$}$|$1$2$3$4$5$6$7$8$9$0$!$a$b$c$d$e$f$g$h$i$j$k$,     ",
"    @ | i l$m$n$o$p$q$r$s$t$u$v$w$x$y$z$A$B$C$D$E$F$G$H$| @     ",
"      } h A I$J$K$L$M$N$O$B#P$Q$R$S$T$U$V$W$X$Y$Z$`$A h }       ",
"        g h i [$ %.%+%@%#%$%%%&%*%=%-%;%>%,%'%)%!%i h g         ",
"          } | 1 2 ~%{%]%^%/%(%_%:%<%[%}%|%1%2%2 1 | }           ",
"            @ , ' ) ! 3%4%5%6%7%7%8%9%0%a%! ) ' , @             ",
"                . % & * = - ; > > ; - = * & % .                 ",
"                    . + @ + # $ $ # + @ + .                     "};
