/* XPM */
static char * ArtProv_FIND_xpm[] = {
"16 16 116 2",
"  	c None",
". 	c #4C4646",
"+ 	c #666A71",
"@ 	c #8B96A0",
"# 	c #9BA6AD",
"$ 	c #848C93",
"% 	c #6A6A6C",
"& 	c #575757",
"* 	c #5E5C5A",
"= 	c #8095AB",
"- 	c #ACCCED",
"; 	c #E3F3FF",
"> 	c #E5F4FF",
", 	c #DDEDFA",
"' 	c #BBCCDD",
") 	c #787C82",
"! 	c #524C4C",
"~ 	c #827C79",
"{ 	c #7B8E99",
"] 	c #70B4F9",
"^ 	c #C9E5FF",
"/ 	c #F2F9FF",
"( 	c #E5F1FF",
"_ 	c #DEEDFF",
": 	c #D5F1FF",
"< 	c #A3C6E8",
"[ 	c #666A6C",
"} 	c #717171",
"| 	c #655F5A",
"1 	c #7FA9D5",
"2 	c #6AB5FF",
"3 	c #D1E5FF",
"4 	c #CFE4FF",
"5 	c #ACD1FF",
"6 	c #9FC9FF",
"7 	c #AED5FF",
"8 	c #B0D8FF",
"9 	c #8195A3",
"0 	c #625B58",
"a 	c #52504C",
"b 	c #84BEF9",
"c 	c #62ACFF",
"d 	c #9DC9FF",
"e 	c #AAD1FF",
"f 	c #BFDBFF",
"g 	c #D0E5FF",
"h 	c #D4E8FF",
"i 	c #D1ECFF",
"j 	c #87A9D0",
"k 	c #66605E",
"l 	c #595959",
"m 	c #8DC3FB",
"n 	c #58AAFF",
"o 	c #A7CEFF",
"p 	c #E7F2FF",
"q 	c #DDEDFF",
"r 	c #D7E6FF",
"s 	c #D2E7FF",
"t 	c #C4E6FF",
"u 	c #84A9D1",
"v 	c #4C4643",
"w 	c #4F4D49",
"x 	c #9EBDE0",
"y 	c #63B1FF",
"z 	c #8BC0FF",
"A 	c #E9F3FF",
"B 	c #E1EDFF",
"C 	c #D8E9FF",
"D 	c #D3E6FF",
"E 	c #ABDBFF",
"F 	c #7B91A4",
"G 	c #25221F",
"H 	c #6D7377",
"I 	c #A2D2FF",
"J 	c #5CA2FF",
"K 	c #9AC9FF",
"L 	c #E1F0FF",
"M 	c #D5EBFF",
"N 	c #B0DDFF",
"O 	c #9AC8F3",
"P 	c #464546",
"Q 	c #221919",
"R 	c #4B4645",
"S 	c #B4BCC3",
"T 	c #CCDFF8",
"U 	c #D3E4F6",
"V 	c #DAE7F8",
"W 	c #D5E6F8",
"X 	c #B5D0EF",
"Y 	c #595C5F",
"Z 	c #86838A",
"` 	c #A5A3A8",
" .	c #4A4945",
"..	c #77828A",
"+.	c #585551",
"@.	c #747A80",
"#.	c #595854",
"$.	c #5F5B64",
"%.	c #B4B3B8",
"&.	c #807C80",
"*.	c #585855",
"=.	c #70706D",
"-.	c #716F6E",
";.	c #5B5B5B",
">.	c #AEACB2",
",.	c #DFDDDF",
"'.	c #5F4F5F",
").	c #A2A0A6",
"!.	c #E5E3E5",
"~.	c #333333",
"{.	c #9D9AA0",
"].	c #E7E5E7",
"^.	c #595958",
"/.	c #A5A2A7",
"(.	c #797878",
"_.	c #2E2E31",
"            . + @ # $ % &       ",
"          * = - ; > , ' ) !     ",
"        ~ { ] ^ / ( _ : < [ }   ",
"        | 1 2 3 4 5 6 7 8 9 0   ",
"        a b c d e f g h i j k   ",
"        l m n o p q r s t u v   ",
"        w x y z A B C D E F G   ",
"          H I J K L M N O P Q   ",
"          R S T U V W X Y       ",
"        Z `  ...+.+.@.#.        ",
"      $.%.&.  *.=.=.-.&         ",
"    ;.>.,.                      ",
"  '.).!.~.                      ",
"  {.].^.                        ",
"  /.(.                          ",
"  _.                            "};
