/* XPM */
static char * ArtProv_DELETE_xpm[] = {
"16 16 90 1",
" 	c None",
".	c #C3A29C",
"+	c #F8988B",
"@	c #E98371",
"#	c #E58F83",
"$	c #AD635B",
"%	c #C65555",
"&	c #EE7772",
"*	c #EB7871",
"=	c #903733",
"-	c #6F4644",
";	c #CE695B",
">	c #F89889",
",	c #FA9687",
"'	c #F68A79",
")	c #CF5D4F",
"!	c #E05F5A",
"~	c #F47264",
"{	c #D1675A",
"]	c #9C564F",
"^	c #E5786A",
"/	c #F96953",
"(	c #F5563F",
"_	c #D43722",
":	c #8B2925",
"<	c #E3564D",
"[	c #F34127",
"}	c #A42F22",
"|	c #AD392C",
"1	c #E43217",
"2	c #EB2606",
"3	c #CB230F",
"4	c #C73729",
"5	c #D11D08",
"6	c #A41907",
"7	c #8F1B09",
"8	c #9F2D26",
"9	c #CE2209",
"0	c #DB2108",
"a	c #D31B02",
"b	c #BD220E",
"c	c #D82A11",
"d	c #E0615D",
"e	c #BB2511",
"f	c #D3250C",
"g	c #E12A0D",
"h	c #C02510",
"i	c #E65B56",
"j	c #D12D15",
"k	c #E0371D",
"l	c #8C1F15",
"m	c #951F13",
"n	c #F33114",
"o	c #A12012",
"p	c #E2665E",
"q	c #CD3118",
"r	c #DE2C0F",
"s	c #8E2119",
"t	c #9D261C",
"u	c #EE351A",
"v	c #B75652",
"w	c #D9422C",
"x	c #DA2D11",
"y	c #AA2213",
"z	c #A3281A",
"A	c #CE2B15",
"B	c #A73434",
"C	c #CA4636",
"D	c #D83115",
"E	c #CB2B16",
"F	c #CC2813",
"G	c #83180B",
"H	c #E6493F",
"I	c #DD4B33",
"J	c #DD361B",
"K	c #AD2516",
"L	c #C12213",
"M	c #C83636",
"N	c #DF5749",
"O	c #E45840",
"P	c #DD4530",
"Q	c #C52F1B",
"R	c #9A211C",
"S	c #883322",
"T	c #C8564B",
"U	c #EC5B45",
"V	c #D0321D",
"W	c #832A23",
"X	c #E2533F",
"Y	c #B6301C",
"                ",
".+@#$      %&*= ",
"-;>,')    !~{   ",
"  ]^/(_: <[}    ",
"    |1234567    ",
"     890abc     ",
"     defgh      ",
"    ijklmno     ",
"   pqrs  tu     ",
"  vwxy    zA    ",
" BCDE      FG   ",
" HIJK       L   ",
"MNOPQ       R   ",
"STUV            ",
" WXY            ",
"                "};
