/* XPM */
static char * ArtProv_HELP_xpm[] = {
"16 16 142 2",
"  	c None",
". 	c #706D70",
"+ 	c #707070",
"@ 	c #6F6F6F",
"# 	c #6F6E6F",
"$ 	c #858587",
"% 	c #A0A1A5",
"& 	c #B7B9BE",
"* 	c #C8C9D0",
"= 	c #706F70",
"- 	c #97979B",
"; 	c #BBBEC7",
"> 	c #9AABD6",
", 	c #6382D8",
"' 	c #4169D4",
") 	c #4168D0",
"! 	c #5877CA",
"~ 	c #899CCB",
"{ 	c #B4B8C4",
"] 	c #BCC2D2",
"^ 	c #6E8CD9",
"/ 	c #3C68D9",
"( 	c #7B99E4",
"_ 	c #B2C3F0",
": 	c #B5C4EF",
"< 	c #93A8E1",
"[ 	c #4266C1",
"} 	c #5A77BE",
"| 	c #A9B1C7",
"1 	c #BDBFC7",
"2 	c #728ED7",
"3 	c #3662D4",
"4 	c #496FD6",
"5 	c #EBEFFA",
"6 	c #FDFCF9",
"7 	c #FFFFFE",
"8 	c #FFFFFF",
"9 	c #C2CBE5",
"0 	c #2A50AD",
"a 	c #5973B5",
"b 	c #B3B7C2",
"c 	c #A1AFD4",
"d 	c #3A65D1",
"e 	c #3962CB",
"f 	c #4268CC",
"g 	c #6C88CE",
"h 	c #4566B8",
"i 	c #5E7CC7",
"j 	c #F2F3F8",
"k 	c #F9F8F9",
"l 	c #4260AE",
"m 	c #2046A0",
"n 	c #8293BA",
"o 	c #6985CA",
"p 	c #3961C9",
"q 	c #385FC4",
"r 	c #355CBE",
"s 	c #2951B5",
"t 	c #1541AC",
"u 	c #2E51AB",
"v 	c #DEDCDF",
"w 	c #D6D9E1",
"x 	c #23469A",
"y 	c #163C98",
"z 	c #4D67A7",
"A 	c #4265BC",
"B 	c #355DC0",
"C 	c #335ABB",
"D 	c #274EB1",
"E 	c #1640A6",
"F 	c #2148A4",
"G 	c #9EA6BC",
"H 	c #DAD6D1",
"I 	c #637AB0",
"J 	c #143B95",
"K 	c #214499",
"L 	c #2F4F9D",
"M 	c #4061B3",
"N 	c #2F56B7",
"O 	c #1F48AC",
"P 	c #113BA1",
"Q 	c #06319B",
"R 	c #8E9BC0",
"S 	c #DED8D2",
"T 	c #6A7CAC",
"U 	c #22449B",
"V 	c #2C4EA2",
"W 	c #2E4FA2",
"X 	c #3B59A5",
"Y 	c #6179B6",
"Z 	c #1C44A6",
"` 	c #103A9E",
" .	c #0E3799",
"..	c #143B99",
"+.	c #97A3C3",
"@.	c #A7AEC4",
"#.	c #27499E",
"$.	c #3555A9",
"%.	c #3B59AE",
"&.	c #3A59B0",
"*.	c #6076B5",
"=.	c #94A0BD",
"-.	c #0D3697",
";.	c #0E3696",
">.	c #0F3793",
",.	c #193E96",
"'.	c #5269A6",
").	c #5B72AD",
"!.	c #3554AC",
"~.	c #3F5CB6",
"{.	c #3F5CBA",
"].	c #3E5ABB",
"^.	c #8D99C1",
"/.	c #BBBDC4",
"(.	c #4B639D",
"_.	c #0C3390",
":.	c #0F3490",
"<.	c #3E5CA1",
"[.	c #C3C6CD",
"}.	c #C9CDD7",
"|.	c #556DBC",
"1.	c #3653BE",
"2.	c #3C59C4",
"3.	c #6275C2",
"4.	c #B7B9C5",
"5.	c #B8BCC7",
"6.	c #4A619A",
"7.	c #15398F",
"8.	c #3C5AA4",
"9.	c #BBC0D1",
"0.	c #D0D3DF",
"a.	c #4A62BE",
"b.	c #314DC6",
"c.	c #6073C7",
"d.	c #B0B6CC",
"e.	c #939EB9",
"f.	c #5E72AA",
"g.	c #475FA5",
"h.	c #4B61AD",
"i.	c #6072BF",
"j.	c #919CCB",
"k.	c #B8BBC6",
"        . + @ # # @ + .         ",
"    @ @ $ % & * * & % $ @ @     ",
"  @ = - ; > , ' ) ! ~ { - = @   ",
"  @ - ] ^ / ( _ : < [ } | - @   ",
". $ 1 2 3 4 5 6 7 8 9 0 a b $ . ",
"+ % c d e f g h i j k l m n % + ",
"@ & o p q r s t u v w x y z & @ ",
"# * A B C D E F G H I J K L * # ",
"# * M N O P Q R S T U V W X * # ",
"@ & Y Z `  ...+.@.#.$.%.&.*.& @ ",
"+ % =.-.;.>.,.'.).!.~.{.].^.% + ",
". $ /.(._.:.<.[.}.|.1.2.3.4.$ . ",
"  @ - 5.6.7.8.9.0.a.b.c.d.- @   ",
"  @ = - /.e.f.g.h.i.j.k.- = @   ",
"    @ @ $ % & * * & % $ @ @     ",
"        . + @ # # @ + .         "};
