/* XPM */
static char * ArtProv_FILEOPEN_xpm[] = {
"16 16 72 1",
" 	c None",
".	c #545652",
"+	c #6D6F6B",
"@	c #676965",
"#	c #60635E",
"$	c #CECECE",
"%	c #C6C6C5",
"&	c #636561",
"*	c #555553",
"=	c #6A6C68",
"-	c #C0C0BF",
";	c #969795",
">	c #9A9C98",
",	c #A7A9A4",
"'	c #959991",
")	c #C9C9C9",
"!	c #A6A6A6",
"~	c #FFFFFF",
"{	c #61635F",
"]	c #F5F5F4",
"^	c #5D5F5B",
"/	c #CCCCCA",
"(	c #595B57",
"_	c #D8D8D7",
":	c #555753",
"<	c #617A9A",
"[	c #3465A4",
"}	c #436B9D",
"|	c #C6D8EB",
"1	c #BED2E8",
"2	c #AEC7E3",
"3	c #8CB1D8",
"4	c #89AED6",
"5	c #A6C2E0",
"6	c #ADC7E3",
"7	c #8BB0D7",
"8	c #8AAFD7",
"9	c #88AED6",
"0	c #85ACD5",
"a	c #81A9D4",
"b	c #7CA6D2",
"c	c #76A2D0",
"d	c #729FCF",
"e	c #9CBBDD",
"f	c #58769B",
"g	c #9BBBDD",
"h	c #709ECE",
"i	c #709DCF",
"j	c #6E9DCE",
"k	c #6E9CCE",
"l	c #6D9CCE",
"m	c #6C9BCE",
"n	c #6B9BCD",
"o	c #6A9ACE",
"p	c #6999CD",
"q	c #6899CD",
"r	c #94B6DB",
"s	c #A9ABA9",
"t	c #89AFD7",
"u	c #6B9ACD",
"v	c #6A9ACD",
"w	c #6898CD",
"x	c #6698CC",
"y	c #6598CD",
"z	c #6597CC",
"A	c #6496CC",
"B	c #6395CC",
"C	c #9ABADE",
"D	c #537196",
"E	c #445D78",
"F	c #3E5F88",
"G	c #3E5F85",
".+++++@@#       ",
"+$$$$$$%&*      ",
"=-;;>,,,,,,,,,' ",
"@)!!,~~~~~~~~~, ",
"{-;;,~]]]]]]]~, ",
"^)!!,~]/////]~, ",
"^-;;,~]]]]]]]~, ",
"()!!,~]///_]]~, ",
":-<[[[[[[[[[[[[}",
":)[|1111111111|[",
":-[233333333345[",
":)[6737890abcde[",
":-fghijklmnopqr[",
":stnuvpwxyzABCDE",
"F[[[[[[[[[[[[[G ",
"                "};
