/* XPM */
static char * ArtProv_UP_xpm[] = {
"16 16 110 2",
"  	c None",
". 	c #3A7403",
"+ 	c #3A7405",
"@ 	c #578927",
"# 	c #568926",
"$ 	c #387105",
"% 	c #41790E",
"& 	c #A7CA87",
"* 	c #A2C77E",
"= 	c #3F6A00",
"- 	c #397304",
"; 	c #95BC72",
"> 	c #9AC572",
", 	c #95C26A",
"' 	c #85B25B",
") 	c #3B7304",
"! 	c #78A54D",
"~ 	c #B0D291",
"{ 	c #7DB448",
"] 	c #76B13F",
"^ 	c #6A9B3B",
"/ 	c #3A7404",
"( 	c #578928",
"_ 	c #BBD7A0",
": 	c #8CBD5F",
"< 	c #80B64D",
"[ 	c #7AB344",
"} 	c #5CA21A",
"| 	c #9AC471",
"1 	c #4F841D",
"2 	c #40780D",
"3 	c #B7D49C",
"4 	c #A0C97A",
"5 	c #8BBE5A",
"6 	c #86BC51",
"7 	c #74B438",
"8 	c #53A308",
"9 	c #6CAF2C",
"0 	c #97C36E",
"a 	c #3E770A",
"b 	c #A0C37F",
"c 	c #B5D597",
"d 	c #96C569",
"e 	c #91C560",
"f 	c #8BC356",
"g 	c #66B01D",
"h 	c #59AC0B",
"i 	c #59AB0B",
"j 	c #85C14D",
"k 	c #83B355",
"l 	c #7EA856",
"m 	c #C7DFB0",
"n 	c #A0CB77",
"o 	c #9ACA6C",
"p 	c #96CA63",
"q 	c #81C143",
"r 	c #5EB30D",
"s 	c #5FB50D",
"t 	c #5FB40D",
"u 	c #5FB20F",
"v 	c #9BCE6A",
"w 	c #669C35",
"x 	c #3B7404",
"y 	c #588A28",
"z 	c #CAE0B5",
"A 	c #D0E5BC",
"B 	c #CEE5B8",
"C 	c #CBE5B3",
"D 	c #97CD63",
"E 	c #68BA19",
"F 	c #64BC0F",
"G 	c #65BE10",
"H 	c #AFDC83",
"I 	c #AEDB82",
"J 	c #ACD982",
"K 	c #A6D37B",
"L 	c #4B8417",
"M 	c #3B7403",
"N 	c #3A7304",
"O 	c #3B7704",
"P 	c #CBE6B2",
"Q 	c #89C94B",
"R 	c #65BD10",
"S 	c #69C311",
"T 	c #6BC712",
"U 	c #B2E184",
"V 	c #3D7905",
"W 	c #CAE5B0",
"X 	c #78C331",
"Y 	c #67C011",
"Z 	c #6CC813",
"` 	c #71CF15",
" .	c #B4E585",
"..	c #C8E4AD",
"+.	c #6DBD1F",
"@.	c #66BF10",
"#.	c #6AC512",
"$.	c #6DC913",
"%.	c #B3E384",
"&.	c #C5E2A9",
"*.	c #65B616",
"=.	c #63BA0F",
"-.	c #66BE10",
";.	c #67C111",
">.	c #B0DE83",
",.	c #C1DFA5",
"'.	c #AAD581",
").	c #ABD781",
"!.	c #ADDA82",
"~.	c #ADD982",
"              . .               ",
"            + @ # +             ",
"          $ % & * % $           ",
"        = - ; > , ' - =         ",
"        ) ! ~ { ] , ^ /         ",
"      + ( _ : < [ } | 1 +       ",
"    $ 2 3 4 5 6 7 8 9 0 a $     ",
"  = - b c d e f g h i j k / =   ",
"  ) l m n o p q r s t u v w x   ",
"+ y z A B C D E F G H I J K L + ",
"M N N N O P Q R S T U V N N N M ",
"        N W X Y Z `  .N         ",
"        N ..+.@.#.$.%.N         ",
"        N &.*.=.-.;.>.N         ",
"        N ,.'.).J !.~.N         ",
"        / N N N N N N x         "};
