/* XPM */
static char * ArtProv_LISTVIEW_xpm[] = {
"16 16 4 1",
" 	c None",
".	c #000084",
"+	c #000000",
"@	c #848484",
"                ",
"                ",
"                ",
"  ...           ",
"  ... ++@+++@+  ",
"  ...           ",
"                ",
"  ...           ",
"  ... +++@++++  ",
"  ...           ",
"                ",
"  ...           ",
"  ... +@++++@+  ",
"  ...           ",
"                ",
"                "};
