/* XPM */
static char * ArtProv_FORWARD_xpm[] = {
"16 16 106 2",
"  	c None",
". 	c #3B7403",
"+ 	c #3A7405",
"@ 	c #3A7304",
"# 	c #598B2A",
"$ 	c #3A7404",
"% 	c #3F6A00",
"& 	c #CBE1B7",
"* 	c #82AB5A",
"= 	c #397304",
"- 	c #387105",
"; 	c #CEE3BB",
"> 	c #C3DCAB",
", 	c #A3C583",
"' 	c #42790F",
") 	c #3A7504",
"! 	c #CBE0B6",
"~ 	c #99C46F",
"{ 	c #B1D291",
"] 	c #B7D49C",
"^ 	c #5F8F30",
"/ 	c #3B7304",
"( 	c #C0DBA7",
"_ 	c #C2DCAA",
": 	c #C5DDAD",
"< 	c #C6DEAF",
"[ 	c #C7DEB0",
"} 	c #91C164",
"| 	c #8FC161",
"1 	c #9DC873",
"2 	c #BBD99F",
"3 	c #80AB59",
"4 	c #BDD9A3",
"5 	c #85B954",
"6 	c #88BB58",
"7 	c #8BBC5B",
"8 	c #8BBD5C",
"9 	c #8CBE5C",
"0 	c #8DC15C",
"a 	c #8DC25A",
"b 	c #8AC255",
"c 	c #8CC358",
"d 	c #AFD48C",
"e 	c #9BC27A",
"f 	c #457B13",
"g 	c #B9D79C",
"h 	c #74AF3B",
"i 	c #6EAC33",
"j 	c #68A92B",
"k 	c #6BAC2F",
"l 	c #78B63D",
"m 	c #82BE49",
"n 	c #89C350",
"o 	c #88C44D",
"p 	c #84C249",
"q 	c #80BE44",
"r 	c #9BCA6D",
"s 	c #AACE89",
"t 	c #5E8F2F",
"u 	c #3A7403",
"v 	c #A3CA7E",
"w 	c #4E9A06",
"x 	c #52A007",
"y 	c #57A709",
"z 	c #5BAE0B",
"A 	c #5FB20E",
"B 	c #66B817",
"C 	c #6CBA1F",
"D 	c #6FBA26",
"E 	c #8DC655",
"F 	c #9EC976",
"G 	c #568926",
"H 	c #4F9C06",
"I 	c #54A408",
"J 	c #5AAC0B",
"K 	c #5EB30D",
"L 	c #62B90E",
"M 	c #64BC0F",
"N 	c #6CBF1C",
"O 	c #9CD267",
"P 	c #8ABA5D",
"Q 	c #41790D",
"R 	c #A4CC7E",
"S 	c #A7D17F",
"T 	c #AAD581",
"U 	c #61B70E",
"V 	c #66BF10",
"W 	c #7FCB34",
"X 	c #A8DA78",
"Y 	c #70A53E",
"Z 	c #3B7704",
"` 	c #ABD681",
" .	c #64BA11",
"..	c #92D352",
"+.	c #A5D773",
"@.	c #538B1E",
"#.	c #3B7604",
"$.	c #ABD781",
"%.	c #A0D56C",
"&.	c #8AC058",
"*.	c #3F780A",
"=.	c #A6D37B",
"-.	c #69A136",
";.	c #3C7504",
">.	c #4D8417",
",.	c #3B7504",
"          . +                   ",
"          @ # $ %               ",
"          @ & * = -             ",
"          @ ; > , ' +           ",
"$ @ @ @ @ ) ! ~ { ] ^ / %       ",
"@ ( _ : < [ [ } | 1 2 3 = -     ",
"@ 4 5 6 7 8 9 0 a b c d e f +   ",
"@ g h i j k l m n o p q r s t u ",
"@ v w w w x y z A B C D E F G u ",
"@ v w w H I J K L M N O P Q +   ",
"@ v v v R S T U V W X Y ) -     ",
"$ @ @ @ @ Z `  ...+.@.#.%       ",
"          @ $.%.&.*.+           ",
"          @ =.-.;.-             ",
"          @ >.,.%               ",
"          . +                   "};
