/* XPM */
static char * ArtProv_ERROR_xpm[] = {
"32 32 538 2",
"  	c None",
". 	c #676767",
"+ 	c #6A6767",
"@ 	c #696969",
"# 	c #6A6969",
"$ 	c #686767",
"% 	c #747474",
"& 	c #767676",
"* 	c #9D9D9D",
"= 	c #BFBFBF",
"- 	c #DADADA",
"; 	c #EEEDED",
"> 	c #FBFBFB",
", 	c #7A7A7A",
"' 	c #898888",
") 	c #BEBEBE",
"! 	c #EAE9E9",
"~ 	c #E9D7D6",
"{ 	c #E2BBBB",
"] 	c #DCA7A8",
"^ 	c #D79596",
"/ 	c #D48688",
"( 	c #CE7C7E",
"_ 	c #D28B8C",
": 	c #D9A2A1",
"< 	c #DFBCBE",
"[ 	c #E8D7D7",
"} 	c #EAE8E8",
"| 	c #6A6666",
"1 	c #838383",
"2 	c #B6B5B5",
"3 	c #EDEAEA",
"4 	c #E5C2C3",
"5 	c #E1AEAD",
"6 	c #E89D9E",
"7 	c #E06E6E",
"8 	c #E15B5B",
"9 	c #E25153",
"0 	c #E1504F",
"a 	c #DF4E4E",
"b 	c #DB4E4E",
"c 	c #D64F50",
"d 	c #CF5050",
"e 	c #C85E5E",
"f 	c #D19F9F",
"g 	c #DEC6C5",
"h 	c #E5E2E2",
"i 	c #686868",
"j 	c #888787",
"k 	c #D1D1D1",
"l 	c #ECD0D0",
"m 	c #DFA9AA",
"n 	c #ECA2A2",
"o 	c #E36464",
"p 	c #E65050",
"q 	c #E44E4E",
"r 	c #E44C4E",
"s 	c #E04C4C",
"t 	c #DF4C4C",
"u 	c #DC4C4C",
"v 	c #DB484B",
"w 	c #D84949",
"x 	c #D64846",
"y 	c #D44646",
"z 	c #CB4848",
"A 	c #C34A4A",
"B 	c #D08E8E",
"C 	c #E8CCCD",
"D 	c #E1E1E1",
"E 	c #E2B5B5",
"F 	c #E4A6A7",
"G 	c #E57677",
"H 	c #E55050",
"I 	c #E24D4D",
"J 	c #DE4B4B",
"K 	c #DC4A4A",
"L 	c #DB4848",
"M 	c #D74747",
"N 	c #D54646",
"O 	c #D34444",
"P 	c #D14444",
"Q 	c #CF4242",
"R 	c #CC4141",
"S 	c #CB3E3E",
"T 	c #C24242",
"U 	c #B64445",
"V 	c #DCADAD",
"W 	c #E49E9E",
"X 	c #E26566",
"Y 	c #E64F4D",
"Z 	c #E04545",
"` 	c #DA3C3C",
" .	c #DC4343",
"..	c #DB4747",
"+.	c #D94647",
"@.	c #D54545",
"#.	c #D34243",
"$.	c #D14242",
"%.	c #CF4141",
"&.	c #CD4240",
"*.	c #C83939",
"=.	c #C52E30",
"-.	c #C33434",
";.	c #C33B3B",
">.	c #BE3C3C",
",.	c #B53E3F",
"'.	c #DCACAC",
").	c #DB8F8F",
"!.	c #E36767",
"~.	c #DB3F3D",
"{.	c #E96464",
"].	c #F7B2B2",
"^.	c #E46464",
"/.	c #D23A38",
"(.	c #D74545",
"_.	c #D44242",
":.	c #CB3F3F",
"<.	c #CA3E3E",
"[.	c #C43232",
"}.	c #CB4D4D",
"|.	c #E29E9E",
"1.	c #CF5A5B",
"2.	c #BA2928",
"3.	c #BC3535",
"4.	c #B83738",
"5.	c #B13D3E",
"6.	c #E9CBCB",
"7.	c #D69696",
"8.	c #E37A7A",
"9.	c #E04A4C",
"0.	c #DB4040",
"a.	c #E65E5E",
"b.	c #FFE7E7",
"c.	c #FFFFFF",
"d.	c #FFE9E9",
"e.	c #DC5959",
"f.	c #CA3232",
"g.	c #C93C3C",
"h.	c #C83D3C",
"i.	c #C22F2F",
"j.	c #C94747",
"k.	c #DDC0C0",
"l.	c #DEEEEC",
"m.	c #E0D0D0",
"n.	c #C75354",
"o.	c #B32727",
"p.	c #B43131",
"q.	c #B13333",
"r.	c #B75253",
"s.	c #BDBDBD",
"t.	c #E6CAC9",
"u.	c #DB7879",
"v.	c #DF4B4B",
"w.	c #E05656",
"x.	c #FFEAEA",
"y.	c #FFE7E8",
"z.	c #D75A5A",
"A.	c #C62D2D",
"B.	c #C93D3D",
"C.	c #C53939",
"D.	c #C12D2B",
"E.	c #C84849",
"F.	c #DDC2C2",
"G.	c #DAE3E3",
"H.	c #D4D5D5",
"I.	c #D3DADA",
"J.	c #D9CBCA",
"K.	c #BB4646",
"L.	c #AD2424",
"M.	c #AC2A2B",
"N.	c #AE3132",
"O.	c #D8A4A5",
"P.	c #E9E7E7",
"Q.	c #DAA7A7",
"R.	c #DB5F5F",
"S.	c #DB4644",
"T.	c #D63B3B",
"U.	c #DE5657",
"V.	c #FFF2F2",
"W.	c #F8E8E8",
"X.	c #D45A5A",
"Y.	c #BD2727",
"Z.	c #BD2A29",
"`.	c #C54848",
" +	c #DBC3C3",
".+	c #DAE4E4",
"++	c #D5D5D5",
"@+	c #D0CECE",
"#+	c #E5E8E8",
"$+	c #F4F4F4",
"%+	c #AF4848",
"&+	c #A62020",
"*+	c #A62929",
"=+	c #A92A2B",
"-+	c #B85654",
";+	c #EAD9DA",
">+	c #CF6A6A",
",+	c #D74343",
"'+	c #D64240",
")+	c #D34141",
"!+	c #CD3333",
"~+	c #DB6363",
"{+	c #FFEFEF",
"]+	c #FCFCFC",
"^+	c #F6F6F6",
"/+	c #F4FCFC",
"(+	c #F0E1E2",
"_+	c #CC4F4F",
":+	c #C13F3F",
"<+	c #D8E1E1",
"[+	c #D5D4D4",
"}+	c #CFCFCF",
"|+	c #F4F2F2",
"1+	c #A23F3F",
"2+	c #990B0B",
"3+	c #A20E0E",
"4+	c #A00E0E",
"5+	c #9D0E0E",
"6+	c #A92E2F",
"7+	c #E6CFCF",
"8+	c #9E9E9E",
"9+	c #DFB8BB",
"0+	c #CF5455",
"a+	c #D44040",
"b+	c #D23E3E",
"c+	c #CE3E3E",
"d+	c #CC3C3C",
"e+	c #C3292B",
"f+	c #D35D5D",
"g+	c #F6EBEB",
"h+	c #FAFFFF",
"i+	c #F1F1F1",
"j+	c #E9F0F0",
"k+	c #E6D2D2",
"l+	c #D6BDBD",
"m+	c #CAC9C9",
"n+	c #E2E5E5",
"o+	c #F3F1F1",
"p+	c #A03939",
"q+	c #980B0B",
"r+	c #A30A0A",
"s+	c #9F0A0A",
"t+	c #9E0A0A",
"u+	c #A41B1B",
"v+	c #D39C9C",
"w+	c #D3999A",
"x+	c #CD4848",
"y+	c #D03C3D",
"z+	c #CE3C3B",
"A+	c #CA3B3B",
"B+	c #C7383A",
"C+	c #CC5B5B",
"D+	c #EDE5E5",
"E+	c #EDF4F4",
"F+	c #E6E5E5",
"G+	c #DEDEDE",
"H+	c #D9DCDC",
"I+	c #D3D9D9",
"J+	c #CDCDCD",
"K+	c #C8C8C8",
"L+	c #E1E5E5",
"M+	c #A03E3E",
"N+	c #A40909",
"O+	c #A10A0A",
"P+	c #A00A0A",
"Q+	c #A21212",
"R+	c #C06A6A",
"S+	c #CB807E",
"T+	c #CC403F",
"U+	c #C83937",
"V+	c #C43737",
"W+	c #C23535",
"X+	c #C03838",
"Y+	c #B72220",
"Z+	c #C24949",
"`+	c #DECBCB",
" @	c #DCE0E0",
".@	c #D6D6D6",
"+@	c #D3D2D2",
"@@	c #CECDCD",
"#@	c #C9C9C9",
"$@	c #E1E2E2",
"%@	c #F2F1F1",
"&@	c #A34141",
"*@	c #A10D0D",
"=@	c #B04243",
"-@	c #BE5858",
";@	c #CA3A3A",
">@	c #C43636",
",@	c #C23434",
"'@	c #C03535",
")@	c #BE3535",
"!@	c #B82222",
"~@	c #B10808",
"{@	c #A70909",
"]@	c #BE4848",
"^@	c #D4D6D6",
"/@	c #D1D3D3",
"(@	c #C3C4C4",
"_@	c #EDEDED",
":@	c #B35E5E",
"<@	c #A60909",
"[@	c #A40A0A",
"}@	c #A62C2C",
"|@	c #F9F9F9",
"1@	c #C16565",
"2@	c #C03333",
"3@	c #BE3434",
"4@	c #BC2F2F",
"5@	c #B41212",
"6@	c #AD0808",
"7@	c #A80909",
"8@	c #B31D1D",
"9@	c #D0AAAA",
"0@	c #CDD3D3",
"a@	c #CCCCCC",
"b@	c #C3C3C3",
"c@	c #C1C2C2",
"d@	c #BFC4C4",
"e@	c #CBB2B2",
"f@	c #B42A2A",
"g@	c #A90909",
"h@	c #A90A0A",
"i@	c #A63030",
"j@	c #FAFAFA",
"k@	c #EBEAEB",
"l@	c #C77B7C",
"m@	c #BF3737",
"n@	c #BE3333",
"o@	c #BE3534",
"p@	c #B82929",
"q@	c #B00808",
"r@	c #AC0808",
"s@	c #B11B1B",
"t@	c #D0B2B2",
"u@	c #CCD7D7",
"v@	c #CBCBCB",
"w@	c #C8C7C7",
"x@	c #C3C8C8",
"y@	c #C3C6C6",
"z@	c #C1BFBF",
"A@	c #BCC5C5",
"B@	c #CEB8B8",
"C@	c #B52828",
"D@	c #AF0808",
"E@	c #B00B0B",
"F@	c #AF4646",
"G@	c #EDECEC",
"H@	c #D5D6D7",
"I@	c #D19999",
"J@	c #BB3737",
"K@	c #B72B2B",
"L@	c #AF1B1B",
"M@	c #CFB1B1",
"N@	c #CBD6D6",
"O@	c #CBCCCC",
"P@	c #C7C7C7",
"Q@	c #E1E4E4",
"R@	c #EEECEC",
"S@	c #B7ACAC",
"T@	c #BCC2C2",
"U@	c #BFBEBE",
"V@	c #C0C0C0",
"W@	c #C6CFCF",
"X@	c #D5C1C1",
"Y@	c #B82626",
"Z@	c #B20808",
"`@	c #B40808",
" #	c #B40707",
".#	c #B50D0D",
"+#	c #BF6D6D",
"@#	c #D7D7D7",
"##	c #BBBBBB",
"$#	c #DCBBBA",
"%#	c #B73839",
"&#	c #B82E2E",
"*#	c #AC1414",
"=#	c #CFADAD",
"-#	c #CACBCB",
";#	c #C6C6C6",
">#	c #EFEEEE",
",#	c #A13737",
"'#	c #A22121",
")#	c #B8ABAC",
"!#	c #C0C8C8",
"~#	c #D9E1E1",
"{#	c #E1CAC8",
"]#	c #BC2323",
"^#	c #B90707",
"/#	c #BA0707",
"(#	c #BB0707",
"_#	c #AB0D0E",
":#	c #D3A09F",
"<#	c #9B9C9B",
"[#	c #E4D7D6",
"}#	c #B33939",
"|#	c #AD1111",
"1#	c #AA1212",
"2#	c #CFABAB",
"3#	c #CACACA",
"4#	c #E0E4E4",
"5#	c #AB2727",
"6#	c #BFB2B2",
"7#	c #CED8D8",
"8#	c #D8D6D6",
"9#	c #E0E0E0",
"0#	c #EDF5F6",
"a#	c #EDD1D1",
"b#	c #C01B1D",
"c#	c #BE0606",
"d#	c #BF0606",
"e#	c #C00606",
"f#	c #AA1F20",
"g#	c #E7D3D1",
"h#	c #9E9E9D",
"i#	c #E3E1E1",
"j#	c #B24545",
"k#	c #A81313",
"l#	c #A92020",
"m#	c #CABDBD",
"n#	c #C8D0D0",
"o#	c #C5C5C5",
"p#	c #E1E3E3",
"q#	c #EFEDED",
"r#	c #9E3D3D",
"s#	c #B02A2A",
"t#	c #CDC0C0",
"u#	c #E2EAEA",
"v#	c #EBEBEB",
"w#	c #F8FEFE",
"x#	c #C40606",
"y#	c #C70807",
"z#	c #C40E0E",
"A#	c #CB8887",
"B#	c #777676",
"C#	c #D59B9B",
"D#	c #A61B1B",
"E#	c #A10B0B",
"F#	c #9A0A0A",
"G#	c #A73434",
"H#	c #BEB5B5",
"I#	c #DFE6E6",
"J#	c #9C3B3B",
"K#	c #970B0B",
"L#	c #B52525",
"M#	c #DECECE",
"N#	c #FBFFFF",
"O#	c #F1EEEE",
"P#	c #BA4747",
"Q#	c #BC0707",
"R#	c #CD0909",
"S#	c #CE0A0A",
"T#	c #AB1010",
"U#	c #E0C0BE",
"V#	c #BEBFBE",
"W#	c #B14444",
"X#	c #A41515",
"Y#	c #9B0A0A",
"Z#	c #960B0B",
"`#	c #A23232",
" $	c #D0B9B9",
".$	c #9B3938",
"+$	c #950B0B",
"@$	c #AB0909",
"#$	c #B70707",
"$$	c #C22E2E",
"%$	c #E2AEAE",
"&$	c #BF4A4A",
"*$	c #D10A0A",
"=$	c #D30B0B",
"-$	c #CC1213",
";$	c #B14747",
">$	c #E8CACA",
",$	c #A32324",
"'$	c #9F1212",
")$	c #910B0B",
"!$	c #B80707",
"~$	c #C50606",
"{$	c #D70C0C",
"]$	c #D11111",
"^$	c #A71F1F",
"/$	c #EBCDCD",
"($	c #B7B6B6",
"_$	c #D9A8A8",
":$	c #A41F1F",
"<$	c #9B1212",
"[$	c #920B0B",
"}$	c #C60909",
"|$	c #CC0808",
"1$	c #D80C0C",
"2$	c #D31212",
"3$	c #A81919",
"4$	c #DEADAE",
"5$	c #D2D2D2",
"6$	c #DAA8A8",
"7$	c #A02222",
"8$	c #9C1414",
"9$	c #920C0C",
"0$	c #C30707",
"a$	c #C90B0B",
"b$	c #D00B0B",
"c$	c #D60C0C",
"d$	c #CF1212",
"e$	c #A92121",
"f$	c #DEAFAF",
"g$	c #991616",
"h$	c #9C1010",
"i$	c #C8080A",
"j$	c #CE0C0C",
"k$	c #CC1010",
"l$	c #AF0F0F",
"m$	c #B24849",
"n$	c #EBCFCF",
"o$	c #DFC0C0",
"p$	c #C47678",
"q$	c #A02021",
"r$	c #9B1111",
"s$	c #A40F0F",
"t$	c #A80B0B",
"u$	c #AC0909",
"v$	c #B40909",
"w$	c #B90909",
"x$	c #BE0C0C",
"y$	c #B10E0E",
"z$	c #A61010",
"A$	c #B85555",
"B$	c #DCADAE",
"C$	c #E7D7D7",
"D$	c #DBB3B3",
"E$	c #CB8989",
"F$	c #B75958",
"G$	c #A83836",
"H$	c #A42B2A",
"I$	c #B14849",
"J$	c #C17070",
"K$	c #D7A2A1",
"L$	c #E8D3D3",
"M$	c #E9E8E8",
"                    . + @ + # $ $ # + @ + .                     ",
"                . % & * = - ; > > ; - = * & % .                 ",
"            @ , ' ) ! ~ { ] ^ / ( _ : < [ } ) ' , @             ",
"          | 1 2 3 4 5 6 7 8 9 0 a b c d e f g h 2 1 |           ",
"        i j k l m n o p q r s t u v w x y z A B C k j i         ",
"      | j D E F G H q I s J K L M N O P Q R S T U V D j |       ",
"    @ 1 k E W X Y Z `  .K ..+.@.#.$.%.&.*.=.-.;.>.,.'.k 1 @     ",
"    , 2 l ).!.I ~.{.].^./.(._.$.%.:.<.[.}.|.1.2.3.4.5.6.2 ,     ",
"  . ' 3 7.8.9.0.a.b.c.d.e.f.%.:.g.h.i.j.k.l.m.n.o.p.q.r.3 '     ",
"  % s.t.u.v.0.w.x.c.c.c.y.z.A.B.C.D.E.F.G.H.I.J.K.L.M.N.O.) %   ",
". & P.Q.R.S.T.U.V.c.c.c.c.W.X.Y.Z.`. +.+++@+#+$+%+&+*+=+-+} &   ",
"+ * ;+>+,+'+)+!+~+{+c.]+^+/+(+_+:+ +<+[+}+#+|+1+2+3+4+5+6+7+8++ ",
"@ = 9+0+a+b+c+d+e+f+g+h+i+; j+k+l+I.}+m+n+o+p+q+r+s+t+t+u+v+= @ ",
"+ - w+x+y+z+A+*.B+Y.C+D+E+F+G+H+I+J+K+L+o+M+2+N+O+P+P+s+Q+R+- + ",
"# ; S+T+A+*.U+V+W+X+Y+Z+`+ @.@+@@@#@$@%@&@2+N+N+N+r+r+O+*@=@; # ",
"$ > -@;@*.>@,@'@)@!@~@{@]@^@/@J+K+(@_@:@q+{@<@<@<@N+<@N+[@}@> $ ",
"$ |@1@V+,@2@3@4@5@6@7@8@9@0@a@K+b@c@d@e@f@N+7@7@g@g@g@g@h@i@j@$ ",
"# k@l@m@n@o@p@q@r@7@s@t@u@v@w@x@y@z@s.A@B@C@7@r@6@D@D@D@E@F@G@# ",
"+ H@I@J@3.K@6@g@N+L@M@N@O@P@Q@R@S@T@U@V@W@X@Y@r@Z@Z@`@ #.#+#@#+ ",
"@ ##$#%#&#6@g@<@*#=#N@-#;#Q@>#,#'#)#!#w@J+~#{#]# #^#/#(#_#:#= @ ",
"+ <#[#}#|#7@N+1#2#N@3#;#4#>#M+2+<@5#6#7#8#9#0#a#b#c#d#e#f#g#h#+ ",
". & i#j#k#N+P+l#m#n#o#p#q#r#q+<@7@g@s#t#u#v#w#; Y.x#y#z#A#! B#. ",
"  % ) C#D#E#s+F#G#H#I#q#J#K#N+<@g@6@q@L#M#N#O#P#Q#R#S#T#U#V#%   ",
"  . ' 3 W#X#Y#2+Z#`# $.$+$O+N+{@@$q@ ##$$$%$&$c#*$=$-$;$3 ' .   ",
"    , 2 >$,$'$K#+$+$)$+$t+P+N+7@6@Z@!$Q#e#Q#~$=${$]$^$/$($,     ",
"    @ 1 k _$:$<$[$+$K#2+t+P+N+g@q@ #(#e#}$|$=$1$2$3$4$5$1 @     ",
"      | j D 6$7$8$9$+$2+t+P+<@r@Z@!$Q#0$a$b$c$d$e$f$D j |       ",
"        i j k >$=@g$h$q+Y#P+<@r@Z@/#d#i$j$k$l$m$n$k j i         ",
"          | 1 2 3 o$p$q$r$s$t$u$v$w$x$y$z$A$B$3 2 1 |           ",
"            @ , ' s.P.C$D$E$F$G$H$I$J$K$L$M$U@' , @             ",
"                . % & * = - ; > > ; - = * & % .                 ",
"                    . + @ + # $ $ # + @ + .                     "};
