/* XPM */
static char * ArtProv_BACK_xpm[] = {
"16 16 104 2",
"  	c None",
". 	c #3A7205",
"+ 	c #3B7403",
"@ 	c #3F6A00",
"# 	c #3B7304",
"$ 	c #598A29",
"% 	c #3A7304",
"& 	c #387105",
"* 	c #397304",
"= 	c #7EA856",
"- 	c #C8DFB1",
"; 	c #3A7405",
"> 	c #42790F",
", 	c #9FC27E",
"' 	c #BDD9A3",
") 	c #CAE0B5",
"! 	c #5D8C2D",
"~ 	c #B3D296",
"{ 	c #AACF88",
"] 	c #91C064",
"^ 	c #C7DFB1",
"/ 	c #3A7504",
"( 	c #3A7404",
"_ 	c #7DA854",
": 	c #B5D497",
"< 	c #94C26A",
"[ 	c #87BA57",
"} 	c #8BBD5C",
"| 	c #C4DDAC",
"1 	c #C5DEAE",
"2 	c #C6DEAE",
"3 	c #C2DCAA",
"4 	c #457C12",
"5 	c #96BC72",
"6 	c #A7CD84",
"7 	c #80B64D",
"8 	c #7DB549",
"9 	c #82B74F",
"0 	c #85B954",
"a 	c #88BB58",
"b 	c #89BC59",
"c 	c #8ABC5A",
"d 	c #BFDAA6",
"e 	c #3A7403",
"f 	c #598C2B",
"g 	c #A5C982",
"h 	c #90BF63",
"i 	c #70AD35",
"j 	c #75B23C",
"k 	c #7BB642",
"l 	c #7FB947",
"m 	c #7AB742",
"n 	c #71B035",
"o 	c #65A827",
"p 	c #5EA31D",
"q 	c #60A420",
"r 	c #68A92B",
"s 	c #B8D69B",
"t 	c #578926",
"u 	c #9DC477",
"v 	c #87BB54",
"w 	c #66AC22",
"x 	c #66AF20",
"y 	c #62AF17",
"z 	c #5CAD0E",
"A 	c #59AC0B",
"B 	c #58A90A",
"C 	c #55A409",
"D 	c #519E07",
"E 	c #4E9A06",
"F 	c #A3CA7E",
"G 	c #41790E",
"H 	c #86B55B",
"I 	c #96CA65",
"J 	c #65B519",
"K 	c #60B50D",
"L 	c #61B70E",
"M 	c #61B60E",
"N 	c #5EB30D",
"O 	c #5AAD0B",
"P 	c #56A609",
"Q 	c #6DA13D",
"R 	c #A5D576",
"S 	c #7CC833",
"T 	c #69C211",
"U 	c #67C111",
"V 	c #AEDB82",
"W 	c #ACD881",
"X 	c #A9D480",
"Y 	c #A6CF7F",
"Z 	c #3B7604",
"` 	c #52891E",
" .	c #A3D572",
"..	c #97DA54",
"+.	c #6EC915",
"@.	c #B0DE83",
"#.	c #3C7804",
"$.	c #3F780A",
"%.	c #8CC359",
"&.	c #A5DC6E",
"*.	c #3C7504",
"=.	c #6AA236",
"-.	c #A9D77D",
";.	c #4D8418",
"                  . +           ",
"              @ # $ %           ",
"            & * = - %           ",
"          ; > , ' ) %           ",
"      @ # ! ~ { ] ^ / % % % % ( ",
"    & * _ : < [ } | 1 2 1 | 3 % ",
"  ; 4 5 6 7 8 9 0 a b c b a d % ",
"e f g h i j k l m n o p q r s % ",
"e t u v w x y z A B C D E E F % ",
"  ; G H I J K L M N O P D E F % ",
"    & ( Q R S T U V W X Y F F % ",
"      @ Z `  ...+.@.#.% % % % ( ",
"          ; $.%.&.@.%           ",
"            & *.=.-.%           ",
"              @ Z ;.%           ",
"                  . +           "};
