/* XPM */
static char * AudibleBreath_xpm[] = {
"16 16 8 1",
" 	c None",
".	c #D49C5B",
"+	c #000000",
"@	c #005F96",
"#	c #D4B77A",
"$	c #3B0000",
"%	c #619CC8",
"&	c #3B7FAF",
"                ",
"                ",
"                ",
"                ",
"                ",
"                ",
"      .++@      ",
"     #$+++%     ",
"     .++++&     ",
"     #$+++%     ",
"      .++@      ",
"                ",
"                ",
"                ",
"                ",
"                "};
