/* XPM */
static char *Clip.xpm[] = {
/* columns rows colors chars-per-pixel */
"16 16 17 1",
"  c black",
". c #00007e",
"X c #0000f0",
"o c #0000fd",
"O c #6767f7",
"+ c #7070f7",
"@ c #7777f8",
"# c #8484f8",
"$ c #8b8bf8",
"% c #9b9bf9",
"& c #a4a4f9",
"* c #ababf9",
"= c #b3b3f9",
"- c #b8b8f9",
"; c #f5f5fd",
": c #fffffe",
"> c White",
/* pixels */
">>>>>>>>>>>>>>>>",
"ooooooooooooo.>>",
"X:X#-==-*:.::.>>",
"X:X+*&&&&:.::.>>",
"XXX@*&&&&:.XX.>>",
"X:XO&&%&%:.;:.>>",
"XXo:::::::.XX.>>",
"XoXooooooo.oo.>>",
"X:X@$$$$#:.::.>>",
"XoX@**&*&:.XX.>>",
"X:X@**&&&:.;:.>>",
"XXX@*&&&%:.XX.>>",
"X:X:::::::.::.>>",
"ooooooooooooo.>>",
">>>>>>>>>>>>>>>>",
">>>>>>>>>>>>>>>>"
};
