/* XPM */
static char *Collection.xpm[] = {
/* columns rows colors chars-per-pixel */
"16 16 22 1",
"  c black",
". c #090900",
"X c #1a1a00",
"o c #1b1516",
"O c #25250b",
"+ c #222219",
"@ c #3c2c2c",
"# c #4c4c20",
"$ c #55552b",
"% c #5e5f31",
"& c #86865c",
"* c #cfcfb5",
"= c #d7d7b3",
"- c #ddddbc",
"; c #e5e5c3",
": c #ebebc7",
"> c #f1f1ce",
", c #f9f9d5",
"< c #fcfcde",
"1 c #ffffee",
"2 c #fdfdf1",
"3 c White",
/* pixels */
"333           33",
"33o &&&&&&&&  33",
"3  ======== % 33",
"3           # 33",
"3 ======== =$ 33",
"3 =2XXO.X= =$ 33",
"3 =2%%% %= =$ 33",
"3 =:<122<= =$ 33",
"3 X        =$ 33",
"3 =======*+=$ 33",
"3 ======== =$ 33",
"3 =;X   X, =$ 33",
"3 =-%%% %> =$ 33",
"3 ======== %  33",
"3 %%%%%%%%X @333",
"3           3333"
};
