/* XPM */
static char * Cal16_xpm[] = {
"16 16 24 1",
" 	c None",
".	c #FFFFFF",
"+	c #000000",
"@	c #68684F",
"#	c #26262B",
"$	c #6B6B6E",
"%	c #FFFFFD",
"&	c #747459",
"*	c #E1F3FF",
"=	c #D1DDFB",
"-	c #DBE8FF",
";	c #FFCEDA",
">	c #D4E0FD",
",	c #CDD9F6",
"'	c #D9E5FF",
")	c #F9F7F0",
"!	c #CAD6F4",
"~	c #F9F6EF",
"{	c #ECE9E2",
"]	c #DFF1FF",
"^	c #C7D3F0",
"/	c #CEDAF9",
"(	c #DCDAD3",
"_	c #474542",
".+@#+@#+@#+@+...",
".+++$$+$$+$+%+..",
".+%+%+%+%+%+%+&.",
".+*+++=++=++-+&.",
".+%+;+%++%++%+&.",
".+*+;+>+==+,'+&.",
".+*;;>>>===='+&.",
".+%;+%%+++++)+&.",
".+*++=>+>,,!>+&.",
".+*;+=>+>,,,>+&.",
".+%;+)~+++++{+&.",
".+];+=,,!^!+=+&.",
".+];+//,!^^+=+&.",
".+%+++{+++++(+&.",
"._];;>>=///!>+&.",
"..++++++++++++.."};
