/* XPM */
static char * db_locked_xpm[] = {
"16 16 9 1",
" 	c None",
".	c #0000FF",
"+	c #000000",
"@	c #FFFFFF",
"#	c #00FF00",
"$	c #808080",
"%	c #C0C0C0",
"&	c #F8C100",
"*	c #DEAC00",
"................",
"++++++++++++++++",
"+@@@@@##@@@@@@$+",
"+@%%%#&&#%%%%%$+",
"+@++#&*&&#+++%$+",
"+@%#&&&&&&#%%%$+",
"+@%#&*##*&#%%%$+",
"+@##&&##&&##%%$+",
"+$#&&&&&&&&#$$$+",
"++#*&&&&&&&#++++",
"..#&&*&+&*&#....",
"@@#*&&&+&&&#@@@@",
"@@#*&&&+&&*#@@@@",
"@@#&&&*&&&&#@@@@",
"@@##########@@@@",
"@@@@@@@@@@@@@@@@"};
