/* XPM */
static char * db_unlocked_xpm[] = {
"16 16 10 1",
" 	c None",
".	c #0000FF",
"+	c #000000",
"@	c #FFFFFF",
"#	c #FF3838",
"$	c #808080",
"%	c #C0C0C0",
"&	c #F8C100",
"*	c #DEAC00",
"=	c #B2C4C4",
"................",
"++++++++++++++++",
"+@@@@@@@@###@@$+",
"+@%%%%%%#&&*#=$+",
"+@++++%##&&&&#$+",
"+@%%%$+#&*##*&#+",
"+@%%%%+#&&##&&#+",
"+@######&&##&&#+",
"+$#&&&&&&&&####+",
"++#*&&&&&&&#++++",
"..#&&*&+&*&#....",
"@@#*&&&+&&&#@@@@",
"@@#*&&&+&&*#@@@@",
"@@#&&&*&&&&#@@@@",
"@@##########@@@@",
"@@@@@@@@@@@@@@@@"};
