/* XPM */
static char * Documents16_xpm[] = {
"16 16 4 1",
" 	c None",
".	c #FFFFFF",
"+	c #2D36EF",
"@	c #000000",
"................",
"................",
"................",
"...+@@++.++@@...",
"..+@..@@+@@..@+.",
"..@.....@.....@+",
"+@..@@..@..@@..@",
"+@.@..@.@.@..@.@",
"+@@.@@..@..@@.@@",
"+@.@..@.@.@..@.@",
"+@@.....@.....@@",
"+@...@..@..@@..@",
"+@..@+@@@@@++@.@",
"+@.@+.++++...+@@",
"++@+..........+@",
"................"};
