/* XPM */
static char * KWManage_xpm[] = {
"16 12 4 1",
" 	c None",
".	c #FF0000",
"+	c #000000",
"@	c #808080",
"                ",
"                ",
"   ...+         ",
"  .....+        ",
" ...............",
" ..++...........",
"@..  ...........",
"  ......+..  .. ",
"  .....+ +.  .. ",
"   ...+         ",
"                ",
"                "};
