/* XPM */
static char * LibrariesRoot16_xpm[] = {
"16 16 12 1",
" 	c None",
".	c #DBB533",
"+	c #2BE73C",
"@	c #FFFFFF",
"#	c #1B6809",
"$	c #000000",
"%	c #4E9B3C",
"&	c #50A4DE",
"*	c #B1402D",
"=	c #4A4AF1",
"-	c #BD1212",
";	c #DE1EE5",
"................",
"................",
"..++@@#@$@@@%@..",
"..++@&#@$*@=%@..",
"..++-&#*$*@=%=..",
"..++-&#*$*#=%=..",
"..++-&#*$*#=%=..",
"..++-&#*$*#=%=..",
"................",
"..-@$@@=@@&&*@..",
"..-=$#@=;@&&*@..",
"..-=$#*=;%&&*=..",
"..-=$#*=;%&&*=..",
"..-=$#*=;%&&*=..",
"................",
"................"};
