/* XPM */
static char * locked_xpm[] = {
"16 16 5 1",
" 	c None",
".	c #00FF00",
"+	c #F8C100",
"@	c #DEAC00",
"#	c #000000",
"                ",
"                ",
"      ..        ",
"     .++.       ",
"    .+@++.      ",
"   .++++++.     ",
"   .+@..@+.     ",
"  ..++..++..    ",
"  .++++++++.    ",
"  .@+++++++.    ",
"  .++@+#+@+.    ",
"  .@+++#+++.    ",
"  .@+++#++@.    ",
"  .+++@++++.    ",
"  ..........    ",
"                "};
