/* XPM */
static char * loop_down_xpm[] = {
"16 16 3 1",
" 	c None",
".	c #B9FDD6",
"+	c #000000",
"................",
"................",
"........+.......",
".......+........",
"......+.+.+.....",
"....+..+....+...",
"........+.......",
"...+.........+..",
"................",
"...+.........+..",
".........++.....",
"..........++....",
"...+++++++++++..",
"..........++....",
".........++.....",
"................"};
