/* XPM */
static char * MultiSelect_xpm[] = {
"16 16 5 1",
" 	c None",
".	c #000000",
"+	c #2B58EC",
"@	c #61FBF9",
"#	c #FFFFFF",
" .............. ",
" .++++++++++++. ",
" .++++++++++++. ",
" .@@@@@@@@@@@@. ",
" .@@@@@@@@@@@@. ",
" .############. ",
" .############. ",
" .............. ",
" .++++++++++++. ",
" .++++++++++++. ",
" .@@@@@@@@@@@@. ",
" .@@@@@@@@@@@@. ",
" .############. ",
" .############. ",
" .............. ",
"                "};
