/* XPM */
static char *Note.xpm[] = {
/* columns rows colors chars-per-pixel */
"16 16 25 1",
"  c black",
". c #000b0b",
"X c #0f0f00",
"o c #00001d",
"O c #001414",
"+ c #002a33",
"@ c #003333",
"# c #220600",
"$ c #262600",
"% c #2f2f00",
"& c #372600",
"* c #3f263f",
"= c #263758",
"- c #004860",
"; c #606000",
": c cyan",
"> c #70fff0",
", c #ffff69",
"< c #ffff71",
"1 c #ffff78",
"2 c #ffff85",
"3 c #ffff8e",
"4 c #ffff97",
"5 c #ffff9f",
"6 c White",
/* pixels */
"6666666666O  666",
"666666666 >>> 66",
"666666  6 >>>O66",
"66666%55 6 @.666",
"66666 224 +:@>66",
"6666%32<2->O >66",
"6666 12 ,=>>>  6",
"666%32<2 13*#6  ",
"666 12 ,2 1366 6",
"66&3222 ,2 33; 6",
"6$ 2 322 ,323 66",
"  422 222 <2; 66",
"6o 442 2222; 666",
"666  42222;  666",
"6666   2X;  6666",
"666666     66666"
};
