/* XPM */
static char * Pause_xpm[] = {
"16 16 3 1",
" 	c None",
".	c #000000",
"+	c #12F800",
"                ",
"                ",
" ......  ...... ",
" .++++.  .++++. ",
" .++++.  .++++. ",
" .++++.  .++++. ",
" .++++.  .++++. ",
" .++++.  .++++. ",
" .++++.  .++++. ",
" .++++.  .++++. ",
" .++++.  .++++. ",
" .++++.  .++++. ",
" .++++.  .++++. ",
" .++++.  .++++. ",
" ......  ...... ",
"                "};
