/* XPM */
static char* PrintPreview2[] = {
"16 16 8 1",
"  c #000000",
"! c #008080",
"# c #808080",
"$ c #C0C0C0",
"% c #00FFFF",
"& c #FFFFFF",
"' c #C0C0C0",
"( c #FFFFFF",
"&&&&('          ",
"&&&&& $$$$$$$$# ",
"&&$          $ (",
"&$ %%%% #$$&&$ &",
"( %%&&&% $ ##$ &",
"' %%&%&% $&$&$ &",
"' %%%%%% ## #$ &",
"( %!%!%! #&&&$ &",
"&# %!%! ### #$ &",
"$      ##&&$&$ &",
"# ###### # # $ &",
" #&&# &$&$$&$$ &",
"#&&& $       $ &",
"&&$ $$$$$$$$$ #&",
"&&$          #&&",
"&&&&$&$&$&$&$&&&"};
