/* XPM */
static char* Print3[] = {
"16 16 7 1",
"  c #000000",
"! c #808080",
"# c #C0C0C0",
"$ c #FF0000",
"% c #FFFF00",
"& c #FFFFFF",
"' c #808080",
"&&&        &&&&&",
"&&' &&&&& # &&&&",
"&&' & ! & ## &&&",
"&&' &&&&&    &&&",
"&&' & ! !!#  &&&",
"&&' &&&&&&&  &&&",
"&&' & ! ! #! &&&",
"&&' &&&&&&&  &&&",
"&&' & ! ! !# &&&",
"&&! &&&&&&&  &&&",
"                ",
" ######!#!#!##&!",
"              ! ",
"!!!%!$&&&#&#& #&",
"!             #&",
"!!!!!!!!!!!!!!#&"};
