/* XPM */
static char * PrintPreview_xpm[] = {
"16 16 7 1",
" 	c None",
".	c #C0C0C0",
"+	c #000000",
"@	c #808080",
"#	c #00FFFF",
"$	c #FFFFFF",
"%	c #008080",
"     .++++++++++",
"     +........@+",
"  .++++++++++.+ ",
" .+####+@..$$.+ ",
" +##$$$#+.+@@.+ ",
".+##$#$#+.$.$.+ ",
".+######+@@+@.+ ",
" +#%#%#%+@$$$.+ ",
" @+#%#%+@@@+@.+ ",
".++++++@@$$.$.+ ",
"@+@@@@@@+@+@+.+ ",
"+@  @+$.$..$..+ ",
"@   +.+++++++.+ ",
"  .+.........+@ ",
"  .++++++++++@  ",
"    . . . . .   "};
