/* XPM */
static char * gimp_temp_268210_xpm[] = {
"16 16 56 1",
" 	c None",
".	c #FDAB0E",
"+	c #FFFFFF",
"@	c #000000",
"#	c #DECFCE",
"$	c #F7E3E7",
"%	c #F7E3DE",
"&	c #DEDFDE",
"*	c #FFFBFF",
"=	c #F7F3F7",
"-	c #C6C7C6",
";	c #DED7D6",
">	c #F7F7F7",
",	c #63798C",
"'	c #6B7173",
")	c #949294",
"!	c #9CA2A5",
"~	c #A5AAAD",
"{	c #A5A6AD",
"]	c #9C9EA5",
"^	c #8C9694",
"/	c #848684",
"(	c #5A656B",
"_	c #425563",
":	c #4A5963",
"<	c #BDBEBD",
"[	c #CECBC6",
"}	c #8C8E84",
"|	c #8C8684",
"1	c #CECBCE",
"2	c #CECFCE",
"3	c #C6BEBD",
"4	c #BDBAB5",
"5	c #73797B",
"6	c #4A6573",
"7	c #4A555A",
"8	c #DEDBD6",
"9	c #C6C3BD",
"0	c #4A4942",
"a	c #524D42",
"b	c #B5B2AD",
"c	c #C6BEB5",
"d	c #CECFC6",
"e	c #7B8284",
"f	c #424D52",
"g	c #D6D7D6",
"h	c #BDB6B5",
"i	c #ADAAA5",
"j	c #D6D3CE",
"k	c #E7E3E7",
"l	c #84868C",
"m	c #B5AEA5",
"n	c #736D63",
"o	c #73716B",
"p	c #E7E7E7",
"q	c #7B7D84",
"................",
"................",
"..++++++++++++..",
"@@#@@@$@@@%@%%.@",
"@.&@*@*@*@*@@=.@",
"@@-@&@&@&@&@&@.@",
".@-@*@*@*@*@*=@@",
"@@-@@@&@@@&@&&.@",
"..;>>>>>>>>>==..",
"................",
"................",
"..,')!~{]^/(__..",
"..:<[}|1234556..",
"..7890ab9cdee6..",
"..fgha0i3jkll6..",
"..f3mnob;p&qq_.."};
