/* XPM */
static char * gimp_temp_26824_xpm[] = {
"16 16 57 1",
" 	c None",
".	c #FF0000",
"+	c #0000FF",
"@	c #DECFCE",
"#	c #F7E3E7",
"$	c #F7E3DE",
"%	c #F7DFDE",
"&	c #DEDFDE",
"*	c #FFFBFF",
"=	c #F7F3F7",
"-	c #C6C7C6",
";	c #FFFFFF",
">	c #DED7D6",
",	c #F7F7F7",
"'	c #63798C",
")	c #6B7173",
"!	c #949294",
"~	c #9CA2A5",
"{	c #A5AAAD",
"]	c #A5A6AD",
"^	c #9C9EA5",
"/	c #8C9694",
"(	c #848684",
"_	c #5A656B",
":	c #425563",
"<	c #4A5963",
"[	c #BDBEBD",
"}	c #CECBC6",
"|	c #8C8E84",
"1	c #8C8684",
"2	c #CECBCE",
"3	c #CECFCE",
"4	c #C6BEBD",
"5	c #BDBAB5",
"6	c #73797B",
"7	c #4A6573",
"8	c #4A555A",
"9	c #DEDBD6",
"0	c #C6C3BD",
"a	c #4A4942",
"b	c #524D42",
"c	c #B5B2AD",
"d	c #C6BEB5",
"e	c #CECFC6",
"f	c #7B8284",
"g	c #424D52",
"h	c #D6D7D6",
"i	c #BDB6B5",
"j	c #ADAAA5",
"k	c #D6D3CE",
"l	c #E7E3E7",
"m	c #84868C",
"n	c #B5AEA5",
"o	c #736D63",
"p	c #73716B",
"q	c #E7E7E7",
"r	c #7B7D84",
"................",
"..++++++++++++..",
"..++++++++++++..",
"..@####$#$$%$$..",
"..&**********=..",
"..-&&&&&&&&&&&..",
"..-;*********=..",
"..-&&&&&&&&&&&..",
"..>,,,,,,,,,==..",
"................",
"................",
"..')!~{]^/(_::..",
"..<[}|12345667..",
"..890abc0deff7..",
"..ghibaj4klmm7..",
"..g4nopc>q&rr:.."};
