/* XPM */
static char * SaveJPG16_xpm[] = {
"16 16 58 1",
" 	c None",
".	c #0000FF",
"+	c #F00000",
"@	c #DECFCE",
"#	c #F7E3E7",
"$	c #F7E3DE",
"%	c #F7DFDE",
"&	c #DEDFDE",
"*	c #FFFBFF",
"=	c #000000",
"-	c #F7F3F7",
";	c #C6C7C6",
">	c #D6D7D6",
",	c #FFFFFF",
"'	c #DED7D6",
")	c #F7F7F7",
"!	c #63798C",
"~	c #6B7173",
"{	c #949294",
"]	c #9CA2A5",
"^	c #A5AAAD",
"/	c #A5A6AD",
"(	c #9C9EA5",
"_	c #8C9694",
":	c #848684",
"<	c #5A656B",
"[	c #425563",
"}	c #4A5963",
"|	c #BDBEBD",
"1	c #CECBC6",
"2	c #8C8E84",
"3	c #8C8684",
"4	c #CECBCE",
"5	c #CECFCE",
"6	c #C6BEBD",
"7	c #BDBAB5",
"8	c #73797B",
"9	c #4A6573",
"0	c #4A555A",
"a	c #DEDBD6",
"b	c #C6C3BD",
"c	c #4A4942",
"d	c #524D42",
"e	c #B5B2AD",
"f	c #C6BEB5",
"g	c #CECFC6",
"h	c #7B8284",
"i	c #424D52",
"j	c #BDB6B5",
"k	c #ADAAA5",
"l	c #D6D3CE",
"m	c #E7E3E7",
"n	c #84868C",
"o	c #B5AEA5",
"p	c #736D63",
"q	c #73716B",
"r	c #E7E7E7",
"s	c #7B7D84",
"................",
"..++++++++++++..",
"..++++++++++++..",
"..@####$#$$%$$..",
"..&*=*===*===-..",
"..;&=&=&=&=&>&..",
"..=,=,===,=,=-..",
"..===&=&&&===&..",
"..')))))))))--..",
"................",
"................",
"..!~{]^/(_:<[[..",
"..}|1234567889..",
"..0abcdebfghh9..",
"..i>jdck6lmnn9..",
"..i6opqe'r&ss[.."};
