/* XPM */
static char * SaveTXT16_xpm[] = {
"16 16 75 1",
" 	c None",
".	c #0000FF",
"+	c #F00000",
"@	c #DECFCE",
"#	c #F7E3E7",
"$	c #F7E3DE",
"%	c #F7DFDE",
"&	c #000000",
"*	c #FFFFFF",
"=	c #F8F4F8",
"-	c #C6C7C6",
";	c #DEDFDE",
">	c #E1E2E1",
",	c #E5E6E5",
"'	c #FAF7FA",
")	c #E8E9E8",
"!	c #DED7D6",
"~	c #F7F7F7",
"{	c #F8F8F8",
"]	c #FAFAFA",
"^	c #63798C",
"/	c #6B7173",
"(	c #949294",
"_	c #A6ACAF",
":	c #BCC0C2",
"<	c #BFC0C5",
"[	c #B8B9BF",
"}	c #ABB3B1",
"|	c #A4A6A4",
"1	c #7F8A8F",
"2	c #687B88",
"3	c #4A5963",
"4	c #BDBEBD",
"5	c #CECBC6",
"6	c #92948A",
"7	c #A19C9A",
"8	c #DDDBDD",
"9	c #DDDEDD",
"0	c #D7D2D1",
"a	c #D1CFCB",
"b	c #969B9D",
"c	c #708A96",
"d	c #4A555A",
"e	c #DEDBD6",
"f	c #C6C3BD",
"g	c #4C4B44",
"h	c #605B50",
"i	c #C7C5C1",
"j	c #D7D5D1",
"k	c #D7D2CB",
"l	c #DDDED7",
"m	c #9DA3A4",
"n	c #424D52",
"o	c #D6D7D6",
"p	c #BDB6B5",
"q	c #524D42",
"r	c #4D4C45",
"s	c #B6B3AF",
"t	c #D2CCCB",
"u	c #E1DFDB",
"v	c #EFECEF",
"w	c #A3A5AA",
"x	c #A0A2A7",
"y	c #647E8B",
"z	c #C6BEBD",
"A	c #B5AEA5",
"B	c #736D63",
"C	c #73716B",
"D	c #B6B3AE",
"E	c #E0DAD9",
"F	c #EAEAEA",
"G	c #E3E4E3",
"H	c #8B8D93",
"I	c #888A90",
"J	c #495C6A",
"................",
"..++++++++++++..",
"..++++++++++++..",
"..@####$#$$%$$..",
"..&&&*&*&*&&&=..",
"..-&;;&;&;;&>,..",
"..;&***&***&*'..",
"..-&;;&;&;;&;)..",
"..!&~{&]&]]&*'..",
"................",
"................",
"..^/(_:<[}|122..",
"..34567890abbc..",
"..defghijklmmc..",
"..nopqrstuvwxy..",
"..nzABCDEFGHIJ.."};
