/* XPM */
static char *searchroot.xpm[] = {
/* columns rows colors chars-per-pixel */
"16 16 62 1",
"  c black",
". c #0007b1",
"X c #1804b1",
"o c #0d2faf",
"O c #0033b8",
"+ c #0038b8",
"@ c #112eae",
"# c #290088",
"$ c #0001e3",
"% c #002ad8",
"& c #062ee9",
"* c #3715ea",
"= c #3f28fd",
"- c #0d53d8",
"; c #0f40fa",
": c #0b59f8",
"> c #0f62e2",
", c #0e77fa",
"< c #274ae8",
"1 c #3963f2",
"2 c #4a378f",
"3 c #432cfc",
"4 c #4730ff",
"5 c #4b33ff",
"6 c #4e3dff",
"7 c #5f4cb1",
"8 c #4960b5",
"9 c #6752b5",
"0 c #4240f4",
"q c #4c74fc",
"w c #6c61ff",
"e c #0e82fe",
"r c #00a4f8",
"t c #3794ff",
"y c #00cbfb",
"u c #5eb5f5",
"i c #6eb7f6",
"p c #92003c",
"a c #b40000",
"s c #c00000",
"d c #f3331f",
"f c #ff4639",
"g c #ff4952",
"h c #8b7bff",
"j c #8488f9",
"k c #bda3ff",
"l c #b3bffb",
"z c #86f6ff",
"x c #8fffff",
"c c #94e4ff",
"v c #b5cbff",
"b c #bfd3ff",
"n c #a1ffff",
"m c #b5f7ff",
"M c #ccb3ff",
"N c #d2daff",
"B c #cae0ff",
"V c #caffff",
"C c #d9f2ff",
"Z c #ffcdff",
"A c #eae7ff",
"S c white",
/* pixels */
"SS&&&&SSSSSSSSSS",
"S&MMMM&SSSSSSSSS",
"&&&&&&&&SSSSSS2S",
"&MMMMMMM&&&&&&&6",
"&MMw&1&oMMMMMMM3",
"&Mh%lCAq@MMMMMM3",
"&M$iVxcZe7MMMMM3",
"&M$umzvB,9MMMMM3",
"&M4>nBNy-MMMMMM3",
"&Mk:<jrt.MMMMMM3",
"&MMM8O+Xd#MMMMM3",
"&MMMMMMMddaMMMM=",
"&MMMMMMMMddaMMM5",
"&55555556*fda&&&",
"SSSSSSSSSSSgdpSS",
"SSSSSSSSSSSSddSS"
};
