/* XPM */
static char *search.xpm[] = {
/* columns rows colors chars-per-pixel */
"16 16 73 1",
"  c #000000",
". c #000016",
"X c #0d0f15",
"o c #12151b",
"O c #1f2429",
"+ c #23272b",
"@ c #001e72",
"# c #51535f",
"$ c #464f7c",
"% c #535a6f",
"& c #505971",
"* c #535d7c",
"= c #6f6a6f",
"- c #707b7b",
"; c #001d8b",
": c #032987",
"> c #062c8c",
", c #0c2f8b",
"< c #0d318b",
"1 c #0444dc",
"2 c #0748dd",
"3 c #0047f8",
"4 c #004afc",
"5 c #0153ff",
"6 c #0b51f8",
"7 c #0b58ff",
"8 c #165afb",
"9 c #1a5ff6",
"0 c #185af8",
"q c #1668ff",
"w c #1c65ff",
"e c #1b76ff",
"r c #226aff",
"t c #2872f7",
"y c #346aff",
"u c #3472ff",
"i c #3b7bf4",
"p c #4e659f",
"a c #5b6c9b",
"s c #6178a0",
"d c #4d6cd4",
"f c #4479fb",
"g c #1a82ff",
"h c #2085ff",
"j c #2c8fff",
"k c #3689ff",
"l c #3d8dff",
"z c #4e8bff",
"x c #5789ff",
"c c #5d9eff",
"v c #818c9a",
"b c #a7a3a5",
"n c #a7b5bf",
"m c #abbcb9",
"M c #beb8a5",
"N c #b0bdb5",
"B c #97bbff",
"V c #b0bfe6",
"C c #abc0fe",
"Z c #b3caff",
"A c #d6c7a1",
"S c #c8c9e3",
"D c #c4d2f6",
"F c #d7d4e1",
"G c #d2daff",
"H c #cde8ff",
"J c #fff2dd",
"K c #f9eeee",
"L c #f4edf1",
"P c #fff9ed",
"I c #fffcf7",
"U c white",
"Y c white",
/* pixels */
"YYY     YYYYYYYY",
"Y  $Bju< YYYYYYY",
"Y dgSKirr YYYYYY",
" <gIKDi9z> YYYYY",
" 5FPt36ysx YYYYY",
" fL66904At YYYYY",
" xC3907pUw YYYYY",
" =6652@Jk: YYYYY",
"Y 2BbMUc1 YYYYYY",
"YY ;GHZ; +%YYYYY",
"YYY    YYO-*YYYY",
"YYYYYYYYYYomaYYY",
"YYYYYYYYYYY.NaYY",
"YYYYYYYYYYYY.mvY",
"YYYYYYYYYYYYYXn%",
"YYYYYYYYYYYYYYo%"
};
