/* XPM */
static char *SeriesRoot.xpm[] = {
/* columns rows colors chars-per-pixel */
"16 16 29 1",
"  c black",
". c #1b1b1b",
"X c gray14",
"o c #2a2a2a",
"O c #303030",
"+ c #3c3c3c",
"@ c gray29",
"# c #646464",
"$ c gray42",
"% c #777777",
"& c #838383",
"* c #8d8d8d",
"= c #939393",
"- c #9d9d9d",
"; c #afafaf",
": c #afb6b6",
"> c #b2b2b2",
", c #bababa",
"< c #dd8989",
"1 c #c3c3c3",
"2 c #cccccc",
"3 c #cad2d2",
"4 c LightGray",
"5 c gainsboro",
"6 c #d9e1e1",
"7 c #ffc8c8",
"8 c gray93",
"9 c white",
"0 c White",
/* pixels */
"           00000",
" &99999 999 00O0",
"X.oX    214   9 ",
"0 4>>>>1225 %$8 ",
"0 932222228 @+1 ",
"0 7<3224**- X.> ",
"0.6:,,,,1,1 00X0",
"0        .. 0000",
"00         00000",
"0000  0  0000000",
"0000    o0000000",
"0000 $00 O000000",
"000 $0000 O00000",
"00 $000000 O0000",
"0 $00000000 O000",
" #0000000000 o00"
};
