/* XPM */
static char * Snapshot16_xpm[] = {
"16 16 6 1",
" 	c None",
".	c #FFFFFF",
"+	c #FFFF00",
"@	c #FF0000",
"#	c #000000",
"$	c #808080",
"................",
"......+.........",
".....+++........",
".....+++........",
"......+....@@...",
".##############.",
".#$$$$$##$$$$$#.",
".#$$$$#..#$$$$#.",
".#$$$#....#$$$#.",
".#$$$#....#$$$#.",
".#$$$$#..#$$$$#.",
".#$$$$$##$$$$$#.",
".##############.",
"................",
"................",
"................"};
