/* XPM */
static char * StopLightYellow_xpm[] = {
"16 16 4 1",
" 	c None",
".	c #000000",
"+	c #666666",
"@	c #FFFF00",
"   .........    ",
"   ....+....    ",
"   ...+++...    ",
"   ..+++++..    ",
"   ...+++...    ",
"   ....@....    ",
"   ...@@@...    ",
"   ..@@@@@..    ",
"   .@@@@@@@.    ",
"   ..@@@@@..    ",
"   ...@@@...    ",
"   ....@....    ",
"   ...+++...    ",
"   ..+++++..    ",
"   ...+++...    ",
"   ....+....    "};
