/* XPM */
static char *transcript1.xpm[] = {
/* columns rows colors chars-per-pixel */
"32 32 18 1",
"  c black",
". c #111111",
"X c #00aa00",
"o c #00dd00",
"O c #00ffcc",
"+ c #669999",
"@ c #66cc99",
"# c red",
"$ c #990099",
"% c #9966cc",
"& c #99ff33",
"* c #ffcc00",
"= c #ffff33",
"- c #ffff66",
"; c #c0c0c0",
": c #ffcccc",
"> c #fffbf0",
", c White",
/* pixels */
",,,,,,,,,,,,,,,,,,,,,,,,,,,,,,,,",
",,,,,,,,,,,,,,,,,,,,,,,,,--,,,,,",
",,,,,,,,,,,,,,,,,,,,,,,,----,,,,",
",,,,,,,,,,,,,,,,,,,,,,,X----*,,,",
",,,,,,,,,,,,,,,,,,,,,,X;X--***,,",
",,,,,,,,,,,,,,,,,,,,,X;;;X****,,",
",,,,,,,,,,,,,,,,,,,,>.X;&oX**,,,",
",,,,,,,,,,,,,,,,,,,>...XoooX,,,,",
",,,,,,,,,,,,,,,,,,>.....XoX,,,,,",
",,,,,,,,,,,,,,,,,>.....::X,,,,,,",
",,,,,,,,,,,,,,,,>.....::>,,,,,,,",
",,,,,,,,,,,,,,,>.....::>,,,,,,,,",
",,,,,,,,,,,,,,>.....::>,,,,,,,,,",
",,,,,,,,,,,,,>.....::>,,,,,,,,,,",
",,,,,,,,,,,,>.....::>,,,,,,,,,,,",
",,,,,,,,,,,>.....::>,,,,,,,,,,,,",
"@@@@@@@@@@>.....::>@@@@@,,,,,,,,",
"@@OOOOOOO#%....::>@@@@OO@@@,,,,,",
"@O@OOOOOO##%..::>@@@OOOOO@@@,,,,",
"@@O@OOOOO###%::>@@OOOOOOOO@@@,,,",
"@O@O@OOOO ===%>@OOOOOOOOOO@@@,,,",
"@@O@O@OOO  ===OOOOOOOOOOOO@@,,,,",
"@O@O@O+OOOOOOOOOOOOOOOOOOO@@+,,,",
",@O@O+O+OOOOOOOOOOOOOOOOO$@+++,,",
",,@O+O+$$$$$$$$$$$$$$$$$$@+++@@,",
"   +O+O+++++++++++++++++++++++++",
",   +O+OOOOOOOOOOOOOOOOOOOOOOOOO",
",,   +O+++++++++++++++++++++++++",
",,,   +OOOOOOOOOOOOOOOOOOOOOOOOO",
",,,,   +++++++++++++++++++++++++",
",,,,,                          ,",
",,,,,,                          "
};
