/* XPM */
static char * Undo16_xpm[] = {
"16 16 34 1",
" 	c None",
".	c #FFFFFF",
"+	c #000000",
"@	c #EFE7BD",
"#	c #EFE7C6",
"$	c #EFD784",
"%	c #5A5D5A",
"&	c #D6B252",
"*	c #6B6D6B",
"=	c #C6A24A",
"-	c #D69608",
";	c #E7B64A",
">	c #DEC373",
",	c #6B696B",
"'	c #8C6500",
")	c #9C6900",
"!	c #DEB64A",
"~	c #CEB66B",
"{	c #636163",
"]	c #BD8208",
"^	c #DEA629",
"/	c #D6A629",
"(	c #C6B26B",
"_	c #A59252",
":	c #525152",
"<	c #8C8A8C",
"[	c #E7CB7B",
"}	c #949694",
"|	c #8C7D4A",
"1	c #AD9E5A",
"2	c #94864A",
"3	c #B5B2B5",
"4	c #8C8E8C",
"5	c #B5B6B5",
"      +         ",
"     ++         ",
"    +@+         ",
"   +#$+++%+     ",
"  +$$$$$$$&+*   ",
" +$$$$$$$$$=+   ",
"  +------;$>+,  ",
"   +'-+++)-!~+  ",
"    +)+ {+]^$+  ",
"     ++  ,+-$+  ",
"      +   +/(+  ",
"          +&_:  ",
"         <+[+}  ",
"         +~|+   ",
"        +12+3   ",
"        4++5    "};
