/* XPM */
static char * unlocked_xpm[] = {
"16 16 5 1",
" 	c None",
".	c #FF3838",
"+	c #F8C100",
"@	c #DEAC00",
"#	c #000000",
"                ",
"                ",
"         ...    ",
"        .++@.   ",
"       ..++++.  ",
"       .+@..@+. ",
"       .++..++. ",
"  ......++..++. ",
"  .++++++++.... ",
"  .@+++++++.    ",
"  .++@+#+@+.    ",
"  .@+++#+++.    ",
"  .@+++#++@.    ",
"  .+++@++++.    ",
"  ..........    ",
"                "};
