/* XPM */
static char * Zoom_xpm[] = {
"16 12 10 1",
" 	c None",
".	c #000000",
"+	c #929292",
"@	c #D7DBDB",
"#	c #DDF7F7",
"$	c #D6D6D6",
"%	c #D8F7F7",
"&	c #D7F7F7",
"*	c #D9F7F7",
"=	c #DCF7F7",
"        ...     ",
"      +.@#$.+   ",
"      .%&+&*.+  ",
"     .@&+&&&@.+ ",
"     .&&&&&&*.+ ",
"     .@&&&&&@.+ ",
"      .&&&&=.++ ",
"     ...@&@.++  ",
"    ...+...++   ",
"   ...++ +++    ",
"  ...++         ",
"  +.++          "};
